#N canvas 56 199 785 477 10;
#X obj 66 341 *~;
#X obj 66 392 to-multidac~ \$1;
#X obj 222 179 t b;
#X obj 28 139 trisaw~;
#X obj 28 61 t a b;
#X obj 46 240 +~ 1200;
#X obj 46 218 *~ 900;
#X obj 506 222 degree-to-note;
#X obj 506 244 + 36;
#X obj 507 184 sel 0;
#X obj 506 315 mtof;
#X obj 657 103 r density;
#X obj 587 201 r scale;
#X obj 540 244 r root;
#X obj 507 46 r beat;
#X obj 507 117 sel;
#X obj 558 127 phrase 6 20 70 24;
#X obj 592 332 * 12;
#X obj 506 280 +;
#X obj 28 33 r \$0freq;
#X obj 506 356 s \$0freq;
#X obj 522 86 random 8;
#X obj 222 216 ar4~ 5 500;
#X obj 28 117 line~;
#X obj 28 278 vcf~ 3;
#X obj 592 305 random 4;
#X obj 507 156 list-loop;
#X obj 279 179 r decay-time;
#X obj 356 7 r \$1xyz;
#X obj 66 367 *~ 0.5;
#X obj 196 60 snapshot~;
#X obj 196 80 / 1000;
#X obj 66 303 hip~ 10;
#X obj 196 36 r snapshot;
#X obj 222 242 snapshot~;
#X obj 293 242 r snapshot;
#X obj 257 60 r snapshot;
#X obj 647 399 r new-phrase;
#X obj 647 429 s \$1new-phrase;
#X obj 647 29 r \$1new-phrase;
#X obj 46 190 r dayNight;
#X text 560 6 phrase generator;
#X text 80 7 synthesis;
#X obj 28 87 list append 100;
#X obj 69 60 r portamento-time;
#X obj 196 130 tabwrite pitches;
#X obj 222 340 tabwrite amplitudes;
#X obj 412 180 \$1;
#X obj 412 159 loadbang;
#X obj 412 203 - 1;
#X connect 0 0 29 0;
#X connect 2 0 22 0;
#X connect 3 0 24 0;
#X connect 4 0 43 0;
#X connect 4 1 2 0;
#X connect 5 0 24 1;
#X connect 6 0 5 0;
#X connect 7 0 8 0;
#X connect 8 0 18 0;
#X connect 9 1 7 0;
#X connect 10 0 20 0;
#X connect 11 0 16 1;
#X connect 12 0 7 1;
#X connect 13 0 8 1;
#X connect 14 0 15 0;
#X connect 15 0 26 0;
#X connect 16 0 26 1;
#X connect 17 0 18 1;
#X connect 18 0 10 0;
#X connect 19 0 4 0;
#X connect 21 0 15 1;
#X connect 22 0 0 1;
#X connect 22 0 34 0;
#X connect 23 0 3 0;
#X connect 23 0 30 0;
#X connect 24 1 32 0;
#X connect 25 0 17 0;
#X connect 26 0 9 0;
#X connect 27 0 22 2;
#X connect 29 0 1 0;
#X connect 30 0 31 0;
#X connect 31 0 45 0;
#X connect 32 0 0 0;
#X connect 33 0 30 0;
#X connect 34 0 46 0;
#X connect 35 0 34 0;
#X connect 36 0 30 0;
#X connect 37 0 38 0;
#X connect 39 0 16 0;
#X connect 39 0 21 0;
#X connect 39 0 25 0;
#X connect 40 0 6 0;
#X connect 43 0 23 0;
#X connect 44 0 43 1;
#X connect 47 0 49 0;
#X connect 48 0 47 0;
#X connect 49 0 46 1;
#X connect 49 0 45 1;
