#N canvas 276 50 1047 824 10;
#X obj 362 89 f;
#X obj 386 89 + 1;
#X obj 362 42 tgl 15 0 empty empty empty 17 7 0 10 -262144 -1 -1 1
1;
#X obj 336 89 bng 15 50 10 0 empty empty empty 17 7 0 10 -262144 -1
-1;
#X obj 362 125 sel 0 3;
#X obj 410 89 mod 16;
#X obj 362 65 metro 333;
#X obj 64 456 catch~ output;
#X obj 38 562 *~ 0.3;
#X obj 64 486 *~ 0.5;
#X msg 362 162 0 \, 4 \, 7;
#X msg 381 182 4 \, 9 \, 12;
#X obj 362 386 mtof;
#X obj 362 431 s note;
#X obj 423 616 noise~;
#X obj 423 653 vcf~ 1;
#X obj 523 437 t b;
#X obj 423 781 *~;
#X obj 523 408 r tick;
#X obj 613 616 noise~;
#X obj 613 789 *~;
#X obj 813 576 noise~;
#X obj 846 714 vline~;
#X obj 846 739 *~;
#X msg 846 685 1 \, 0 50;
#X obj 846 763 *~;
#X obj 813 781 *~;
#X obj 613 653 vcf~ 2;
#X obj 504 672 *~ 1000;
#X obj 728 717 *~ 1200;
#X obj 813 653 vcf~ 8;
#X obj 912 673 *~ 60;
#X obj 766 277 osc~;
#X obj 820 93 tgl 15 0 empty empty empty 17 7 0 10 -262144 -1 -1 1
1;
#X obj 765 338 *~;
#X obj 38 431 catch~ perc;
#X obj 766 225 *~ 100;
#X obj 716 277 osc~;
#X obj 716 225 *~ 200;
#X obj 656 754 ar4~ 0 50;
#X obj 453 714 ar4~ 0 51;
#X obj 507 66 s tempo;
#X obj 264 75 s tick;
#X obj 881 570 del 15;
#X obj 656 613 del 5;
#X obj 457 541 hsl 128 15 0 10000 0 0 empty empty empty -2 -8 0 10
-262144 -1 -1 0 1;
#X obj 680 495 hsl 128 15 0 10000 0 0 empty empty empty -2 -8 0 10
-262144 -1 -1 0 1;
#X obj 643 425 hsl 128 15 0 127 0 0 empty empty empty -2 -8 0 10 -262144
-1 -1 0 1;
#X obj 858 466 hsl 128 15 0 127 0 0 empty empty empty -2 -8 0 10 -262144
-1 -1 0 1;
#X obj 820 529 hsl 128 15 0 10000 0 0 empty empty empty -2 -8 0 10
-262144 -1 -1 0 1;
#X obj 820 143 metro 666;
#X obj 823 340 hsl 128 15 0 1 0 0 empty empty empty -2 -8 0 10 -262144
-1 -1 2466 1;
#X obj 765 360 *~ 0.1;
#X obj 613 847 throw~ perc;
#X obj 613 827 *~ 0.01;
#X obj 28 411 catch~ kick;
#X obj 452 332 keypiano 8;
#X obj 452 309 tgl 15 0 empty empty empty 17 7 0 10 -262144 -1 -1 0
1;
#X obj 402 330 + 48;
#X msg 462 148 4;
#X msg 515 208 9;
#X obj 462 125 sel 14 0 2 4;
#X msg 479 168 7;
#X msg 496 188 12;
#X obj 444 364 + 96;
#X obj 847 204 hsl 128 15 0 127 0 0 empty empty empty -2 -8 0 10 -262144
-1 -1 1000 1;
#X obj 820 274 ar4~ 127 828;
#X obj 362 330 + 60;
#X obj 362 409 minipoly 8;
#X obj 362 21 loadbang;
#X obj 820 66 loadbang;
#X obj 29 829 s voiceTicks;
#X text 46 804 send to haskell;
#X obj 184 824 multidac~;
#X obj 181 797 s test-mode;
#X obj 181 767 bng 15 250 50 0 empty empty empty 17 7 0 10 -262144
-1 -1;
#X text 202 771 send all to dac1 or dac2;
#X obj 29 697 r note;
#X obj 29 727 unpack f f;
#X obj 135 605 loadbang;
#X obj 135 667 / 44100;
#X obj 135 692 * 1000;
#X text 181 633 add OpenAL buffer-size delay to trigger message;
#X obj 29 772 pipe;
#X obj 63 243 voice2 8;
#X obj 63 123 voice2 2;
#X obj 63 143 voice2 3;
#X obj 63 163 voice2 4;
#X obj 63 183 voice2 5;
#X obj 63 203 voice2 6;
#X obj 63 223 voice2 7;
#X obj 765 386 throw~ dac1;
#X obj 63 263 voice2 9;
#X obj 902 161 s kickTick;
#X obj 15 658 r kickTick;
#X msg 902 136 1;
#X msg 135 632 128;
#X connect 0 0 1 0;
#X connect 0 0 4 0;
#X connect 0 0 61 0;
#X connect 1 0 5 0;
#X connect 2 0 6 0;
#X connect 4 0 10 0;
#X connect 4 1 11 0;
#X connect 5 0 0 1;
#X connect 6 0 0 0;
#X connect 6 0 3 0;
#X connect 6 0 42 0;
#X connect 7 0 9 0;
#X connect 9 0 8 0;
#X connect 10 0 67 0;
#X connect 11 0 67 0;
#X connect 12 0 68 0;
#X connect 14 0 15 0;
#X connect 15 0 17 0;
#X connect 16 0 40 0;
#X connect 16 0 43 0;
#X connect 16 0 44 0;
#X connect 17 0 54 0;
#X connect 18 0 16 0;
#X connect 19 0 27 0;
#X connect 20 0 54 0;
#X connect 21 0 30 0;
#X connect 22 0 23 1;
#X connect 22 0 23 0;
#X connect 23 0 25 1;
#X connect 23 0 25 0;
#X connect 24 0 22 0;
#X connect 25 0 26 1;
#X connect 25 0 31 0;
#X connect 26 0 54 0;
#X connect 27 0 20 0;
#X connect 28 0 15 1;
#X connect 29 0 27 1;
#X connect 30 0 26 0;
#X connect 31 0 30 1;
#X connect 32 0 34 0;
#X connect 33 0 50 0;
#X connect 34 0 52 0;
#X connect 35 0 8 0;
#X connect 36 0 32 0;
#X connect 37 0 34 0;
#X connect 38 0 37 0;
#X connect 39 0 29 0;
#X connect 39 0 20 1;
#X connect 40 0 17 1;
#X connect 40 0 28 0;
#X connect 43 0 24 0;
#X connect 44 0 39 0;
#X connect 45 0 28 1;
#X connect 46 0 29 1;
#X connect 47 0 44 1;
#X connect 48 0 43 1;
#X connect 49 0 31 1;
#X connect 50 0 66 0;
#X connect 50 0 95 0;
#X connect 51 0 52 1;
#X connect 52 0 91 0;
#X connect 54 0 53 0;
#X connect 55 0 8 0;
#X connect 56 0 64 0;
#X connect 57 0 56 0;
#X connect 58 0 12 0;
#X connect 59 0 58 0;
#X connect 60 0 58 0;
#X connect 61 0 59 0;
#X connect 61 1 62 0;
#X connect 61 2 63 0;
#X connect 61 3 60 0;
#X connect 62 0 58 0;
#X connect 63 0 58 0;
#X connect 64 0 12 0;
#X connect 65 0 66 1;
#X connect 66 0 34 1;
#X connect 66 0 36 0;
#X connect 66 0 38 0;
#X connect 67 0 12 0;
#X connect 68 0 13 0;
#X connect 69 0 2 0;
#X connect 70 0 33 0;
#X connect 75 0 74 0;
#X connect 77 0 78 0;
#X connect 78 0 83 0;
#X connect 79 0 96 0;
#X connect 80 0 81 0;
#X connect 81 0 83 1;
#X connect 83 0 71 0;
#X connect 94 0 83 0;
#X connect 95 0 93 0;
#X connect 96 0 80 0;
