#N canvas 21 178 381 549 10;
#X obj 49 200 phasor~ 440;
#X obj 49 226 -~ 0.5;
#X obj 129 170 *~ 0.5;
#X obj 129 200 phasor~ 440;
#X obj 129 226 -~ 0.5;
#X obj 89 138 sig~ 440;
#X obj 87 279 *~ 0.2;
#X obj 186 170 osc~ 3;
#X obj 103 322 osc~ 3;
#X obj 103 348 *~ 400;
#X obj 89 51 route \$1;
#X obj 89 19 r note;
#X obj 120 503 throw~ output;
#X obj 186 142 r tempo;
#X obj 196 272 r tempo;
#X obj 87 408 vcf~ 2;
#X obj 103 370 +~ 800;
#X obj 251 426 vline~;
#X msg 251 372 1 \$1 \, 0 \$2 \$1;
#X obj 248 450 *~;
#X obj 120 471 *~;
#X msg 251 337 400 3000;
#X obj 89 78 s \$0note;
#X obj 89 106 r \$0note;
#X obj 251 307 r \$0note;
#X connect 0 0 1 0;
#X connect 1 0 6 0;
#X connect 2 0 3 0;
#X connect 3 0 4 0;
#X connect 4 0 6 0;
#X connect 5 0 0 0;
#X connect 5 0 2 0;
#X connect 6 0 15 0;
#X connect 7 0 3 0;
#X connect 8 0 9 0;
#X connect 9 0 16 0;
#X connect 10 0 22 0;
#X connect 11 0 10 0;
#X connect 13 0 7 0;
#X connect 14 0 8 0;
#X connect 15 1 20 0;
#X connect 16 0 15 1;
#X connect 17 0 19 0;
#X connect 17 0 19 1;
#X connect 18 0 17 0;
#X connect 19 0 20 1;
#X connect 20 0 12 0;
#X connect 21 0 18 0;
#X connect 23 0 5 0;
#X connect 24 0 21 0;
