#N canvas 19 81 486 608 10;
#X obj 49 226 -~ 0.5;
#X obj 129 170 *~ 0.5;
#X obj 129 226 -~ 0.5;
#X obj 89 138 sig~ 440;
#X obj 87 279 *~ 0.2;
#X obj 186 170 osc~ 3;
#X obj 203 362 osc~ 3;
#X obj 89 51 route \$1;
#X obj 89 19 r note;
#X obj 341 496 vline~;
#X msg 341 442 1 \$1 \, 0 \$2 \$1;
#X obj 338 520 *~;
#X obj 220 511 *~;
#X msg 341 407 400 3000;
#X obj 89 78 s \$0note;
#X obj 89 106 r \$0note;
#X obj 341 377 r \$0note;
#X obj 203 334 rescale~ -1 1 1 30;
#X obj 186 78 rescale~ -1 1 1 10;
#X obj 187 448 vcf~ 2;
#X obj 129 200 phasor~;
#X obj 49 200 phasor~;
#X obj 249 226 -~ 0.5;
#X obj 249 205 phasor~;
#X obj 186 42 osc~ 0.11;
#X obj 203 298 osc~ 0.23;
#X obj 249 255 *~;
#X obj 346 226 osc~ 0.31;
#X obj 346 262 rescale~ -1 1 0 1;
#X obj 249 180 +~;
#X obj 308 155 osc~ 0.45;
#X obj 308 180 rescale~ -1 1 1 7;
#X obj 249 158 *~ 2;
#X obj 203 388 *~ 400;
#X obj 203 410 +~ 800;
#X obj 220 562 to-multidac~ \$1;
#X obj 373 13 r \$1xyz;
#X obj 373 37 unpack f f f;
#X obj 373 70 s \$0x;
#X obj 407 90 s \$0y;
#X obj 442 110 s \$0z;
#X obj 255 43 r \$0x;
#X obj 370 157 r \$0y;
#X obj 409 239 r \$0z;
#X obj 270 309 r \$0z;
#X connect 0 0 4 0;
#X connect 1 0 20 0;
#X connect 2 0 4 0;
#X connect 3 0 1 0;
#X connect 3 0 21 0;
#X connect 3 0 32 0;
#X connect 4 0 19 0;
#X connect 5 0 20 0;
#X connect 6 0 33 0;
#X connect 7 0 14 0;
#X connect 8 0 7 0;
#X connect 9 0 11 0;
#X connect 9 0 11 1;
#X connect 10 0 9 0;
#X connect 11 0 12 1;
#X connect 12 0 35 0;
#X connect 13 0 10 0;
#X connect 15 0 3 0;
#X connect 16 0 13 0;
#X connect 17 0 6 0;
#X connect 18 0 5 0;
#X connect 19 1 12 0;
#X connect 20 0 2 0;
#X connect 21 0 0 0;
#X connect 22 0 26 0;
#X connect 23 0 22 0;
#X connect 26 0 4 0;
#X connect 28 0 26 1;
#X connect 29 0 23 0;
#X connect 31 0 29 1;
#X connect 32 0 29 0;
#X connect 33 0 34 0;
#X connect 34 0 19 1;
#X connect 36 0 37 0;
#X connect 37 0 38 0;
#X connect 37 1 39 0;
#X connect 37 2 40 0;
#X connect 41 0 18 0;
#X connect 42 0 31 0;
#X connect 43 0 28 0;
#X connect 44 0 17 0;
