#N canvas 584 48 708 680 10;
#X obj 80 267 r~ x;
#X obj 140 267 r~ y;
#X obj 210 267 r~ z;
#N canvas 0 22 477 422 genwave 0;
#X obj 40 259 vline~;
#X obj 95 288 snapshot~;
#X obj 95 259 metro 20;
#X obj 40 35 inlet;
#X obj 40 207 f;
#X obj 79 164 * 1000;
#X obj 40 57 t a a;
#X obj 40 311 outlet~;
#X obj 95 311 outlet;
#X obj 40 164 metro;
#X msg 40 231 10 \$1 \, -10 \$1 \$1;
#X obj 190 252 loadbang;
#X obj 186 283 bng 15 250 50 0 empty empty empty 17 7 0 10 -262144
-1 -1;
#X msg 40 136 tempo \$1 sec \, bang;
#X obj 40 88 * 2;
#X connect 0 0 1 0;
#X connect 0 0 7 0;
#X connect 1 0 8 0;
#X connect 2 0 1 0;
#X connect 3 0 6 0;
#X connect 4 0 10 0;
#X connect 5 0 4 1;
#X connect 6 0 14 0;
#X connect 6 1 5 0;
#X connect 9 0 4 0;
#X connect 10 0 0 0;
#X connect 11 0 2 0;
#X connect 12 0 2 0;
#X connect 13 0 9 0;
#X connect 14 0 13 0;
#X restore 58 76 pd genwave;
#X obj 118 111 hsl 128 15 -10 10 0 0 empty empty empty -2 -8 0 10 -262144
-1 -1 3491 1;
#X obj 58 29 loadbang;
#N canvas 0 22 477 422 genwave 0;
#X obj 40 259 vline~;
#X obj 95 288 snapshot~;
#X obj 95 259 metro 20;
#X obj 40 35 inlet;
#X obj 40 207 f;
#X obj 79 164 * 1000;
#X obj 40 57 t a a;
#X obj 40 311 outlet~;
#X obj 95 311 outlet;
#X obj 40 164 metro;
#X msg 40 231 10 \$1 \, -10 \$1 \$1;
#X obj 190 252 loadbang;
#X obj 186 283 bng 15 250 50 0 empty empty empty 17 7 0 10 -262144
-1 -1;
#X msg 40 136 tempo \$1 sec \, bang;
#X obj 40 88 * 2;
#X connect 0 0 1 0;
#X connect 0 0 7 0;
#X connect 1 0 8 0;
#X connect 2 0 1 0;
#X connect 3 0 6 0;
#X connect 4 0 10 0;
#X connect 5 0 4 1;
#X connect 6 0 14 0;
#X connect 6 1 5 0;
#X connect 9 0 4 0;
#X connect 10 0 0 0;
#X connect 11 0 2 0;
#X connect 12 0 2 0;
#X connect 13 0 9 0;
#X connect 14 0 13 0;
#X restore 258 76 pd genwave;
#X obj 318 111 hsl 128 15 -10 10 0 0 empty empty empty -2 -8 0 10 -262144
-1 -1 9883 1;
#X obj 258 29 loadbang;
#N canvas 0 22 477 422 genwave 0;
#X obj 40 259 vline~;
#X obj 95 288 snapshot~;
#X obj 95 259 metro 20;
#X obj 40 35 inlet;
#X obj 40 207 f;
#X obj 79 164 * 1000;
#X obj 40 57 t a a;
#X obj 40 311 outlet~;
#X obj 95 311 outlet;
#X obj 40 164 metro;
#X msg 40 231 10 \$1 \, -10 \$1 \$1;
#X obj 190 252 loadbang;
#X obj 186 283 bng 15 250 50 0 empty empty empty 17 7 0 10 -262144
-1 -1;
#X msg 40 136 tempo \$1 sec \, bang;
#X obj 40 88 * 2;
#X connect 0 0 1 0;
#X connect 0 0 7 0;
#X connect 1 0 8 0;
#X connect 2 0 1 0;
#X connect 3 0 6 0;
#X connect 4 0 10 0;
#X connect 5 0 4 1;
#X connect 6 0 14 0;
#X connect 6 1 5 0;
#X connect 9 0 4 0;
#X connect 10 0 0 0;
#X connect 11 0 2 0;
#X connect 12 0 2 0;
#X connect 13 0 9 0;
#X connect 14 0 13 0;
#X restore 468 76 pd genwave;
#X obj 528 111 hsl 128 15 -10 10 0 0 empty empty empty -2 -8 0 10 -262144
-1 -1 1135 1;
#X obj 468 29 loadbang;
#X msg 58 52 17;
#X msg 258 52 19;
#X msg 468 52 23;
#X obj 58 110 s~ x;
#X obj 258 110 s~ y;
#X obj 468 110 s~ z;
#X obj 80 297 cos~;
#X obj 140 297 cos~;
#X obj 210 297 cos~;
#X obj 123 390 hsl 128 15 -1 1 0 0 empty empty empty -2 -8 0 10 -262144
-1 -1 16 1;
#X obj 120 348 metro 20;
#X obj 120 369 snapshot~;
#X obj 120 327 loadbang;
#X obj 57 496 *~;
#X obj 489 247 scope~;
#X obj 401 510 rescale~ -1 1 0 10;
#X obj 401 471 r~ x;
#X obj 326 599 hsl 128 15 0 10 0 0 empty empty empty -2 -8 0 10 -262144
-1 -1 0 1;
#X obj 323 557 metro 20;
#X obj 323 578 snapshot~;
#X obj 323 536 loadbang;
#X obj 305 538 tgl 15 0 empty empty empty 17 7 0 10 -262144 -1 -1 1
1;
#X connect 0 0 18 0;
#X connect 1 0 19 0;
#X connect 2 0 20 0;
#X connect 3 0 15 0;
#X connect 3 1 4 0;
#X connect 5 0 12 0;
#X connect 6 0 16 0;
#X connect 6 1 7 0;
#X connect 8 0 13 0;
#X connect 9 0 17 0;
#X connect 9 0 26 0;
#X connect 9 1 10 0;
#X connect 11 0 14 0;
#X connect 12 0 3 0;
#X connect 13 0 6 0;
#X connect 14 0 9 0;
#X connect 18 0 23 0;
#X connect 22 0 23 0;
#X connect 23 0 21 0;
#X connect 24 0 22 0;
#X connect 27 0 31 0;
#X connect 28 0 27 0;
#X connect 30 0 31 0;
#X connect 31 0 29 0;
#X connect 32 0 30 0;
#X connect 33 0 30 0;
