#N canvas 901 76 452 741 10;
#X msg 38 189 0;
#X obj 38 162 sel a w s e d f t g y h u j k o l p, f 39;
#X msg 52 209 1;
#X msg 66 229 2;
#X msg 81 249 3;
#X msg 95 269 4;
#X msg 110 289 5;
#X msg 124 309 6;
#X msg 139 329 7;
#X msg 153 349 8;
#X msg 167 369 9;
#X msg 182 389 10;
#X msg 196 409 11;
#X msg 211 429 12;
#X msg 225 449 13;
#X msg 240 469 14;
#X msg 254 489 15;
#X obj 38 534 f;
#X obj 38 31 keyname, f 15;
#X obj 38 102 symbol;
#X obj 38 61 sel 1;
#X obj 38 686 outlet;
#X obj 38 132 spigot;
#X obj 193 59 inlet;
#X connect 0 0 17 0;
#X connect 1 0 0 0;
#X connect 1 1 2 0;
#X connect 1 2 3 0;
#X connect 1 3 4 0;
#X connect 1 4 5 0;
#X connect 1 5 6 0;
#X connect 1 6 7 0;
#X connect 1 7 8 0;
#X connect 1 8 9 0;
#X connect 1 9 10 0;
#X connect 1 10 11 0;
#X connect 1 11 12 0;
#X connect 1 12 13 0;
#X connect 1 13 14 0;
#X connect 1 14 15 0;
#X connect 1 15 16 0;
#X connect 2 0 17 0;
#X connect 3 0 17 0;
#X connect 4 0 17 0;
#X connect 5 0 17 0;
#X connect 6 0 17 0;
#X connect 7 0 17 0;
#X connect 8 0 17 0;
#X connect 9 0 17 0;
#X connect 10 0 17 0;
#X connect 11 0 17 0;
#X connect 12 0 17 0;
#X connect 13 0 17 0;
#X connect 14 0 17 0;
#X connect 15 0 17 0;
#X connect 16 0 17 0;
#X connect 17 0 21 0;
#X connect 18 0 20 0;
#X connect 18 1 19 1;
#X connect 19 0 22 0;
#X connect 20 0 19 0;
#X connect 22 0 1 0;
#X connect 23 0 22 1;
