#N canvas 392 65 499 548 10;
#X obj 49 353 dac~ 1 2 3 4 5 6 7 8 9 10 11 12 13 14 15 16;
#X obj 50 23 catch~ dac1;
#X obj 69 43 catch~ dac2;
#X obj 89 63 catch~ dac3;
#X obj 109 83 catch~ dac4;
#X obj 129 103 catch~ dac5;
#X obj 149 123 catch~ dac6;
#X obj 169 143 catch~ dac7;
#X obj 189 163 catch~ dac8;
#X obj 208 183 catch~ dac9;
#X obj 227 203 catch~ dac10;
#X obj 247 223 catch~ dac11;
#X obj 267 243 catch~ dac12;
#X obj 287 263 catch~ dac13;
#X obj 307 283 catch~ dac14;
#X obj 327 303 catch~ dac15;
#X obj 347 323 catch~ dac16;
#X connect 1 0 0 0;
#X connect 2 0 0 1;
#X connect 3 0 0 2;
#X connect 4 0 0 3;
#X connect 5 0 0 4;
#X connect 6 0 0 5;
#X connect 7 0 0 6;
#X connect 8 0 0 7;
#X connect 9 0 0 8;
#X connect 10 0 0 9;
#X connect 11 0 0 10;
#X connect 12 0 0 11;
#X connect 13 0 0 12;
#X connect 14 0 0 13;
#X connect 15 0 0 14;
#X connect 16 0 0 15;
