#N canvas 338 23 928 822 10;
#X obj 61 771 dac~;
#X obj 74 736 *~ 0.1;
#X obj 74 615 *~;
#X obj 614 402 mtof;
#X floatatom 614 431 5 0 0 0 - - -, f 5;
#X msg 607 330 60.5;
#X obj 614 478 s \$0pitch;
#X obj 587 556 s \$0trigger;
#X obj 587 371 t b a;
#X obj 653 331 hsl 128 15 0 127 0 0 empty empty empty -2 -8 0 10 -262144
-1 -1 0 0;
#X obj 587 23 tgl 15 0 empty empty empty 17 7 0 10 -262144 -1 -1 1
1;
#X obj 587 52 metro 250;
#X obj 641 23 hsl 128 15 0 2000 0 0 empty empty empty -2 -8 0 10 -262144
-1 -1 2900 1;
#X obj 788 477 list-cycle;
#X obj 587 127 list-random;
#X obj 397 182 blsaw~;
#X obj 665 100 loadbang;
#X obj 74 18 r \$0pitch;
#X obj 232 18 r \$0pitch;
#X obj 74 51 oscillator~;
#X obj 232 51 oscillator~;
#X obj 74 423 filter~;
#X obj 145 232 lfo~;
#X msg 665 126 60 62 65 67 69 40 45;
#X obj 236 430 envelope~;
#X obj 236 408 r \$0trigger;
#X obj 124 699 rev1~;
#X obj 74 663 pan~;
#X obj 98 637 hsl 128 15 0 1 0 0 empty empty empty -2 -8 0 10 -262144
-1 -1 2700 1;
#X obj 173 666 loadbang;
#X obj 187 693 hsl 128 15 0 127 0 0 empty empty empty -2 -8 0 10 -262144
-1 -1 0 1;
#X obj 188 715 bng 15 250 50 0 empty empty empty 17 7 0 10 -262144
-1 -1;
#X floatatom 681 374 5 0 0 0 - - -, f 5;
#X msg 666 164 78 77 73 66;
#X msg 135 666 50;
#X obj 145 389 scale01~ 1 10000;
#X msg 669 193 60;
#X msg 705 197 62;
#X msg 669 223 36;
#X connect 1 0 0 1;
#X connect 1 0 0 0;
#X connect 2 0 27 0;
#X connect 3 0 4 0;
#X connect 4 0 6 0;
#X connect 5 0 8 0;
#X connect 8 0 7 0;
#X connect 8 1 3 0;
#X connect 8 1 32 0;
#X connect 9 0 8 0;
#X connect 10 0 11 0;
#X connect 11 0 14 0;
#X connect 12 0 11 1;
#X connect 14 0 8 0;
#X connect 16 0 23 0;
#X connect 17 0 19 0;
#X connect 18 0 20 0;
#X connect 19 0 21 0;
#X connect 20 0 21 0;
#X connect 21 0 2 0;
#X connect 22 0 35 0;
#X connect 23 0 14 1;
#X connect 24 0 2 1;
#X connect 24 0 21 1;
#X connect 25 0 24 0;
#X connect 26 0 1 0;
#X connect 27 0 1 0;
#X connect 27 1 26 0;
#X connect 28 0 27 1;
#X connect 29 0 34 0;
#X connect 30 0 26 1;
#X connect 31 0 26 2;
#X connect 33 0 14 1;
#X connect 34 0 26 1;
#X connect 36 0 14 1;
#X connect 37 0 14 1;
#X connect 38 0 14 1;
