#N canvas 297 6 982 869 10;
#X obj 362 89 f;
#X obj 386 89 + 1;
#X obj 362 42 tgl 15 0 empty empty empty 17 7 0 10 -262144 -1 -1 1
1;
#X obj 336 89 bng 15 50 10 0 empty empty empty 17 7 0 10 -262144 -1
-1;
#X obj 362 125 sel 0 3;
#X obj 410 89 mod 16;
#X obj 362 65 metro 333;
#X obj 67 498 dac~;
#X obj 64 326 catch~ output;
#X obj 38 432 *~ 0.3;
#X obj 97 431 rev3~ 100 99 3000 40;
#X obj 63 83 voice 0;
#X obj 64 356 *~ 0.5;
#X msg 362 162 0 \, 4 \, 7;
#X msg 381 182 4 \, 9 \, 12;
#X obj 419 352 mtof;
#X obj 419 330 + 60;
#X obj 362 377 list append;
#X obj 362 421 s note;
#X obj 362 304 keypiano 8;
#X obj 431 261 tgl 15 0 empty empty empty 17 7 0 10 -262144 -1 -1 0
1;
#X obj 423 616 noise~;
#X obj 423 653 vcf~ 1;
#X obj 523 437 t b;
#X obj 423 781 *~;
#X obj 523 408 r tick;
#X obj 613 616 noise~;
#X obj 613 789 *~;
#X obj 813 576 noise~;
#X obj 846 714 vline~;
#X obj 846 739 *~;
#X msg 846 685 1 \, 0 50;
#X obj 846 763 *~;
#X obj 813 781 *~;
#X obj 613 653 vcf~ 2;
#X obj 504 672 *~ 1000;
#X obj 728 717 *~ 1200;
#X obj 813 653 vcf~ 8;
#X obj 812 812 *~ 10;
#X obj 912 673 *~ 60;
#X obj 766 277 osc~;
#X obj 820 143 metro 333;
#X obj 820 93 tgl 15 0 empty empty empty 17 7 0 10 -262144 -1 -1 0
1;
#X obj 765 338 *~;
#X obj 613 827 throw~ perc;
#X obj 38 301 catch~ perc;
#X obj 765 386 throw~ perc;
#X obj 766 225 *~ 100;
#X obj 716 277 osc~;
#X obj 716 225 *~ 200;
#X obj 656 754 ar4~ 0 50;
#X obj 453 714 ar4~ 0 51;
#X obj 507 66 s tempo;
#X obj 63 103 voice 1;
#X obj 63 123 voice 2;
#X obj 63 143 voice 3;
#X obj 63 163 voice 4;
#X obj 63 183 voice 5;
#X obj 63 203 voice 6;
#X obj 63 223 voice 7;
#X obj 63 243 voice 8;
#X obj 820 274 ar4~ 2 828;
#X obj 264 75 s tick;
#X obj 663 543 del 15;
#X obj 656 613 del 5;
#X connect 0 0 1 0;
#X connect 0 0 4 0;
#X connect 1 0 5 0;
#X connect 2 0 6 0;
#X connect 4 0 13 0;
#X connect 4 1 14 0;
#X connect 5 0 0 1;
#X connect 6 0 0 0;
#X connect 6 0 3 0;
#X connect 6 0 62 0;
#X connect 8 0 12 0;
#X connect 9 0 7 0;
#X connect 9 0 7 1;
#X connect 10 0 7 0;
#X connect 10 1 7 1;
#X connect 12 0 9 0;
#X connect 12 0 10 0;
#X connect 12 0 10 1;
#X connect 13 0 19 0;
#X connect 14 0 19 0;
#X connect 15 0 17 1;
#X connect 16 0 15 0;
#X connect 17 0 18 0;
#X connect 19 0 17 0;
#X connect 19 1 16 0;
#X connect 20 0 19 1;
#X connect 21 0 22 0;
#X connect 22 0 24 0;
#X connect 23 0 51 0;
#X connect 23 0 63 0;
#X connect 23 0 64 0;
#X connect 24 0 44 0;
#X connect 25 0 23 0;
#X connect 26 0 34 0;
#X connect 27 0 44 0;
#X connect 28 0 37 0;
#X connect 29 0 30 1;
#X connect 29 0 30 0;
#X connect 30 0 32 1;
#X connect 30 0 32 0;
#X connect 31 0 29 0;
#X connect 32 0 33 1;
#X connect 32 0 39 0;
#X connect 33 0 38 0;
#X connect 33 0 44 0;
#X connect 34 0 27 0;
#X connect 35 0 22 1;
#X connect 36 0 34 1;
#X connect 37 0 33 0;
#X connect 38 0 44 0;
#X connect 39 0 37 1;
#X connect 40 0 43 0;
#X connect 41 0 61 0;
#X connect 42 0 41 0;
#X connect 43 0 46 0;
#X connect 45 0 9 0;
#X connect 47 0 40 0;
#X connect 48 0 43 0;
#X connect 49 0 48 0;
#X connect 50 0 36 0;
#X connect 50 0 27 1;
#X connect 51 0 24 1;
#X connect 51 0 35 0;
#X connect 61 0 43 1;
#X connect 61 0 47 0;
#X connect 61 0 49 0;
#X connect 63 0 31 0;
#X connect 64 0 50 0;
