#N canvas 297 22 1021 874 10;
#X obj 362 89 f;
#X obj 386 89 + 1;
#X obj 362 42 tgl 15 0 empty empty empty 17 7 0 10 -262144 -1 -1 1
1;
#X obj 336 89 bng 15 50 10 0 empty empty empty 17 7 0 10 -262144 -1
-1;
#X obj 362 125 sel 0 3;
#X obj 410 89 mod 16;
#X obj 362 65 metro 333;
#X obj 67 628 dac~;
#X obj 64 456 catch~ output;
#X obj 38 562 *~ 0.3;
#X obj 64 486 *~ 0.5;
#X msg 362 162 0 \, 4 \, 7;
#X msg 381 182 4 \, 9 \, 12;
#X obj 362 386 mtof;
#X obj 362 431 s note;
#X obj 423 616 noise~;
#X obj 423 653 vcf~ 1;
#X obj 523 437 t b;
#X obj 423 781 *~;
#X obj 523 408 r tick;
#X obj 613 616 noise~;
#X obj 613 789 *~;
#X obj 813 576 noise~;
#X obj 846 714 vline~;
#X obj 846 739 *~;
#X msg 846 685 1 \, 0 50;
#X obj 846 763 *~;
#X obj 813 781 *~;
#X obj 613 653 vcf~ 2;
#X obj 504 672 *~ 1000;
#X obj 728 717 *~ 1200;
#X obj 813 653 vcf~ 8;
#X obj 912 673 *~ 60;
#X obj 766 277 osc~;
#X obj 820 93 tgl 15 0 empty empty empty 17 7 0 10 -262144 -1 -1 1
1;
#X obj 765 338 *~;
#X obj 38 431 catch~ perc;
#X obj 766 225 *~ 100;
#X obj 716 277 osc~;
#X obj 716 225 *~ 200;
#X obj 656 754 ar4~ 0 50;
#X obj 453 714 ar4~ 0 51;
#X obj 507 66 s tempo;
#X obj 264 75 s tick;
#X obj 881 570 del 15;
#X obj 656 613 del 5;
#X obj 457 541 hsl 128 15 0 10000 0 0 empty empty empty -2 -8 0 10
-262144 -1 -1 0 1;
#X obj 680 495 hsl 128 15 0 10000 0 0 empty empty empty -2 -8 0 10
-262144 -1 -1 0 1;
#X obj 643 425 hsl 128 15 0 127 0 0 empty empty empty -2 -8 0 10 -262144
-1 -1 0 1;
#X obj 858 466 hsl 128 15 0 127 0 0 empty empty empty -2 -8 0 10 -262144
-1 -1 0 1;
#X obj 820 529 hsl 128 15 0 10000 0 0 empty empty empty -2 -8 0 10
-262144 -1 -1 0 1;
#X obj 97 561 rev3~ 100 90 3000 40;
#X floatatom 121 625 0 0 120 0 - - -;
#X text 162 625 level \, dB;
#X floatatom 156 647 0 0 100 0 - - -;
#X text 197 647 liveness \, 0-100;
#X floatatom 191 671 4 0 5000 0 - - -, f 4;
#X floatatom 226 694 0 0 100 0 - - -;
#X text 239 669 crossover frequency \, Hz.;
#X text 262 696 HF damping \, percent;
#X obj 820 143 metro 666;
#X obj 823 340 hsl 128 15 0 127 0 0 empty empty empty -2 -8 0 10 -262144
-1 -1 0 1;
#X obj 765 360 *~ 0.1;
#X obj 613 847 throw~ perc;
#X obj 613 827 *~ 0.01;
#X obj 28 411 catch~ kick;
#X obj 765 386 throw~ kick;
#X obj 452 332 keypiano 8;
#X obj 452 309 tgl 15 0 empty empty empty 17 7 0 10 -262144 -1 -1 0
1;
#X obj 402 330 + 48;
#X msg 462 148 4;
#X msg 515 208 9;
#X obj 462 125 sel 14 0 2 4;
#X msg 479 168 7;
#X msg 496 188 12;
#X obj 444 364 + 96;
#X obj 847 204 hsl 128 15 0 127 0 0 empty empty empty -2 -8 0 10 -262144
-1 -1 0 1;
#X obj 820 274 ar4~ 127 828;
#X obj 362 330 + 60;
#X obj 362 409 minipoly 8;
#X obj 362 21 loadbang;
#X obj 820 66 loadbang;
#X obj 63 83 voice2 0;
#X obj 63 103 voice2 1;
#X obj 63 123 voice2 2;
#X obj 63 143 voice2 3;
#X obj 63 163 voice2 4;
#X obj 63 183 voice2 5;
#X obj 63 203 voice2 6;
#X obj 63 223 voice2 7;
#X obj 63 243 voice2 8;
#X connect 0 0 1 0;
#X connect 0 0 4 0;
#X connect 0 0 72 0;
#X connect 1 0 5 0;
#X connect 2 0 6 0;
#X connect 4 0 11 0;
#X connect 4 1 12 0;
#X connect 5 0 0 1;
#X connect 6 0 0 0;
#X connect 6 0 3 0;
#X connect 6 0 43 0;
#X connect 8 0 10 0;
#X connect 9 0 7 0;
#X connect 9 0 7 1;
#X connect 10 0 9 0;
#X connect 10 0 51 0;
#X connect 10 0 51 1;
#X connect 11 0 78 0;
#X connect 12 0 78 0;
#X connect 13 0 79 0;
#X connect 15 0 16 0;
#X connect 16 0 18 0;
#X connect 17 0 41 0;
#X connect 17 0 44 0;
#X connect 17 0 45 0;
#X connect 18 0 64 0;
#X connect 19 0 17 0;
#X connect 20 0 28 0;
#X connect 21 0 64 0;
#X connect 22 0 31 0;
#X connect 23 0 24 1;
#X connect 23 0 24 0;
#X connect 24 0 26 1;
#X connect 24 0 26 0;
#X connect 25 0 23 0;
#X connect 26 0 27 1;
#X connect 26 0 32 0;
#X connect 27 0 64 0;
#X connect 28 0 21 0;
#X connect 29 0 16 1;
#X connect 30 0 28 1;
#X connect 31 0 27 0;
#X connect 32 0 31 1;
#X connect 33 0 35 0;
#X connect 34 0 60 0;
#X connect 35 0 62 0;
#X connect 36 0 9 0;
#X connect 36 0 51 0;
#X connect 37 0 33 0;
#X connect 38 0 35 0;
#X connect 39 0 38 0;
#X connect 40 0 30 0;
#X connect 40 0 21 1;
#X connect 41 0 18 1;
#X connect 41 0 29 0;
#X connect 44 0 25 0;
#X connect 45 0 40 0;
#X connect 46 0 29 1;
#X connect 47 0 30 1;
#X connect 48 0 45 1;
#X connect 49 0 44 1;
#X connect 50 0 32 1;
#X connect 51 0 7 0;
#X connect 51 1 7 1;
#X connect 52 0 51 2;
#X connect 54 0 51 3;
#X connect 56 0 51 4;
#X connect 57 0 51 5;
#X connect 60 0 77 0;
#X connect 61 0 62 1;
#X connect 62 0 66 0;
#X connect 64 0 63 0;
#X connect 65 0 9 0;
#X connect 67 0 75 0;
#X connect 68 0 67 0;
#X connect 69 0 13 0;
#X connect 70 0 69 0;
#X connect 71 0 69 0;
#X connect 72 0 70 0;
#X connect 72 1 73 0;
#X connect 72 2 74 0;
#X connect 72 3 71 0;
#X connect 73 0 69 0;
#X connect 74 0 69 0;
#X connect 75 0 13 0;
#X connect 76 0 77 1;
#X connect 77 0 35 1;
#X connect 77 0 37 0;
#X connect 77 0 39 0;
#X connect 78 0 13 0;
#X connect 79 0 14 0;
#X connect 80 0 2 0;
#X connect 81 0 34 0;
