#N canvas 392 65 499 548 10;
#X obj 49 493 dac~ 1 2 3 4 5 6 7 8 9 10 11 12 13 14 15 16;
#X obj 50 163 catch~ dac1;
#X obj 69 183 catch~ dac2;
#X obj 89 203 catch~ dac3;
#X obj 109 223 catch~ dac4;
#X obj 129 243 catch~ dac5;
#X obj 149 263 catch~ dac6;
#X obj 169 283 catch~ dac7;
#X obj 189 303 catch~ dac8;
#X obj 208 323 catch~ dac9;
#X obj 227 343 catch~ dac10;
#X obj 247 363 catch~ dac11;
#X obj 267 383 catch~ dac12;
#X obj 287 403 catch~ dac13;
#X obj 307 423 catch~ dac14;
#X obj 327 443 catch~ dac15;
#X obj 347 463 catch~ dac16;
#X obj 354 9 array define scale1;
#X obj 287 245 array set scale1;
#X msg 303 97 0 2 4 5 7 9 11;
#X obj 303 71 loadbang;
#X text 34 31 0 2 4 5 7 9 11;
#X text 40 14 1 3 6 8 10;
#X msg 287 44 1 3 6 8 10;
#X msg 235 21 0 2 3 5 7 8 10;
#X obj 319 183 list length;
#X obj 319 209 array size scale1;
#X obj 287 148 t a a;
#X text 348 120 major;
#X text 370 42 penta;
#X text 184 20 minor;
#X connect 1 0 0 0;
#X connect 2 0 0 1;
#X connect 3 0 0 2;
#X connect 4 0 0 3;
#X connect 5 0 0 4;
#X connect 6 0 0 5;
#X connect 7 0 0 6;
#X connect 8 0 0 7;
#X connect 9 0 0 8;
#X connect 10 0 0 9;
#X connect 11 0 0 10;
#X connect 12 0 0 11;
#X connect 13 0 0 12;
#X connect 14 0 0 13;
#X connect 15 0 0 14;
#X connect 16 0 0 15;
#X connect 19 0 27 0;
#X connect 20 0 19 0;
#X connect 23 0 27 0;
#X connect 24 0 27 0;
#X connect 25 0 26 0;
#X connect 27 0 18 0;
#X connect 27 1 25 0;
