#N canvas 694 134 548 467 10;
#X obj 35 429 throw~;
#X obj 36 340 *~ 0.1;
#X obj 36 239 min~;
#X obj 70 214 -~ 1;
#X obj 70 239 *~ -50;
#X obj 35 161 phasor~ 220;
#X msg 46 405 set \$1;
#X obj 46 384 r \$0set-channel;
#X obj 36 77 mtof;
#X obj 39 36 hsl 128 15 0 127 0 0 empty empty empty -2 -8 0 10 -262144
-1 -1 0 0;
#X obj 254 10 bng 15 250 50 0 empty empty empty 17 7 0 10 -262144 -1
-1;
#X obj 254 93 array get scale1;
#X obj 296 182 * 12;
#X obj 296 158 + 2;
#X floatatom 203 174 5 0 0 0 - - -, f 5;
#X obj 254 213 +;
#X obj 254 122 f;
#X obj 254 40 t b b b;
#X obj 254 70 random;
#X obj 304 70 array size scale1;
#X obj 290 9 metro 250;
#X obj 379 19 tgl 15 0 empty empty empty 17 7 0 10 -262144 -1 -1 1
1;
#X obj 406 10 loadbang;
#X msg 73 265 2000;
#X msg 110 286 3;
#X obj 296 130 random 6;
#X obj 36 133 line~;
#X obj 36 106 list append 50;
#X obj 220 338 *~ 2000;
#X obj 219 366 +~ 3000;
#X obj 220 308 osc~ 2;
#X obj 36 311 bob~ 1000 3;
#X obj 110 261 loadbang;
#X obj 316 351 s \$0output;
#X obj 316 285 snapshot~;
#X obj 316 252 metro 10;
#X obj 316 228 loadbang;
#X obj 316 313 / 2000;
#X obj 463 210 loadbang;
#X obj 463 239 timer;
#X msg 463 262 seed \$1;
#X obj 409 123 r \$0seed;
#X connect 1 0 0 0;
#X connect 2 0 31 0;
#X connect 3 0 4 0;
#X connect 4 0 2 1;
#X connect 5 0 2 0;
#X connect 5 0 3 0;
#X connect 6 0 0 0;
#X connect 7 0 6 0;
#X connect 8 0 27 0;
#X connect 9 0 8 0;
#X connect 10 0 17 0;
#X connect 11 0 16 0;
#X connect 12 0 15 1;
#X connect 13 0 12 0;
#X connect 15 0 14 0;
#X connect 15 0 8 0;
#X connect 16 0 15 0;
#X connect 17 0 18 0;
#X connect 17 1 25 0;
#X connect 17 2 19 0;
#X connect 18 0 11 0;
#X connect 19 0 18 1;
#X connect 20 0 17 0;
#X connect 21 0 20 0;
#X connect 22 0 21 0;
#X connect 23 0 31 1;
#X connect 24 0 31 2;
#X connect 25 0 13 0;
#X connect 26 0 5 0;
#X connect 26 0 34 0;
#X connect 27 0 26 0;
#X connect 28 0 29 0;
#X connect 29 0 31 1;
#X connect 30 0 28 0;
#X connect 31 0 1 0;
#X connect 32 0 24 0;
#X connect 34 0 37 0;
#X connect 35 0 34 0;
#X connect 36 0 35 0;
#X connect 37 0 33 0;
#X connect 38 0 39 1;
#X connect 39 0 40 0;
#X connect 40 0 25 0;
#X connect 40 0 18 0;
