#N canvas 0 50 662 349 10;
#X obj 420 138 list length;
#X obj 393 113 t a a;
#X obj 113 147 random;
#X obj 113 117 t b b;
#X obj 393 48 inlet;
#X obj 113 50 inlet;
#X obj 113 269 outlet;
#X obj 163 147 array size \$0array;
#X obj 113 170 array get \$0array;
#X obj 420 164 array size \$0array;
#X obj 393 200 array set \$0array;
#X obj 393 234 array define \$0array;
#X obj 113 221 f;
#X connect 0 0 9 0;
#X connect 1 0 10 0;
#X connect 1 1 0 0;
#X connect 2 0 8 0;
#X connect 3 0 2 0;
#X connect 3 1 7 0;
#X connect 4 0 1 0;
#X connect 5 0 3 0;
#X connect 7 0 2 1;
#X connect 8 0 12 0;
#X connect 12 0 6 0;
