#N canvas 42 179 501 423 10;
#X obj 235 352 multidac~;
#X obj 255 292 s test-mode;
#X obj 255 262 bng 15 250 50 0 empty empty empty 17 7 0 10 -262144
-1 -1;
#X text 276 266 send all to dac1 or dac2;
#N canvas 538 32 723 727 kick 1;
#X obj 340 374 vline~;
#X obj 170 793 dac~;
#X obj 179 735 catch~ \$0out;
#X obj 179 762 *~ 0.1;
#X obj 174 651 throw~ \$0out;
#X msg 340 352 1 \$1 \, 0 \$2 \$1;
#X obj 340 398 *~;
#X obj 174 534 *~;
#X obj 340 465 *~;
#X obj 340 266 loadbang;
#X obj 174 316 *~;
#X obj 413 251 bng 15 250 50 0 empty empty empty 17 7 0 10 -262144
-1 -1;
#X obj 232 291 *~ 5;
#X obj 174 250 sig~ 30;
#X obj 340 430 *~;
#X msg 340 330 1 1000;
#X obj 174 446 cos~;
#X obj 173 369 osc~;
#X obj 174 423 +~ 0.1;
#X obj 174 396 *~ 0.2;
#X obj 340 298 metro 500;
#X obj 470 463 noise~;
#X obj 195 575 *~ 500;
#X obj 577 444 vline~;
#X msg 577 422 1 \$1 \, 0 \$2 \$1;
#X obj 577 468 *~;
#X obj 577 535 *~;
#X obj 577 500 *~;
#X obj 471 515 *~;
#X obj 175 613 vcf~ 1;
#X obj 577 347 del 350;
#X msg 577 400 1 100;
#X obj 491 569 *~ 5000;
#X obj 472 594 vcf~ 10;
#X obj 560 312 del 380;
#X obj 582 287 del 400;
#X connect 0 0 6 0;
#X connect 0 0 6 1;
#X connect 2 0 3 0;
#X connect 3 0 1 0;
#X connect 3 0 1 1;
#X connect 5 0 0 0;
#X connect 6 0 14 0;
#X connect 6 0 14 1;
#X connect 7 0 29 0;
#X connect 8 0 7 1;
#X connect 8 0 12 0;
#X connect 8 0 22 0;
#X connect 9 0 20 0;
#X connect 10 0 17 0;
#X connect 11 0 20 0;
#X connect 12 0 10 1;
#X connect 13 0 10 0;
#X connect 14 0 8 0;
#X connect 14 0 8 1;
#X connect 15 0 5 0;
#X connect 16 0 7 0;
#X connect 17 0 19 0;
#X connect 18 0 16 0;
#X connect 19 0 18 0;
#X connect 20 0 15 0;
#X connect 20 0 30 0;
#X connect 20 0 34 0;
#X connect 20 0 35 0;
#X connect 21 0 28 0;
#X connect 22 0 29 1;
#X connect 23 0 25 0;
#X connect 23 0 25 1;
#X connect 24 0 23 0;
#X connect 25 0 27 0;
#X connect 25 0 27 1;
#X connect 26 0 28 1;
#X connect 26 0 32 0;
#X connect 27 0 26 0;
#X connect 27 0 26 1;
#X connect 28 0 33 0;
#X connect 29 1 4 0;
#X connect 30 0 31 0;
#X connect 31 0 24 0;
#X connect 32 0 33 1;
#X connect 33 0 4 0;
#X connect 34 0 31 0;
#X connect 35 0 31 0;
#X restore 97 327 pd kick;
#X obj 96 60 voice 1 60 600;
#X obj 96 80 voice 2 70 500;
#X obj 96 300 voice 13 89 2200;
#X obj 96 100 voice 3 68 800;
#X obj 96 120 voice 4 75 700;
#X obj 96 140 voice 5 72 1000;
#X obj 96 160 voice 6 44 2000;
#X obj 96 180 voice 7 43 1000;
#X obj 96 220 voice 9 51 1100;
#X obj 96 200 voice 8 41 1200;
#X obj 96 240 voice 10 56 1300;
#X obj 96 260 voice 11 58 1400;
#X obj 96 280 voice 12 91 2100;
#X connect 2 0 1 0;
