#N canvas 0 50 450 300 10;
#X obj 141 216 +~ \$1;
#X obj 141 180 *~;
#X obj 204 70 loadbang;
#X obj 141 253 outlet~;
#X obj 113 42 inlet~;
#X obj 205 157 -;
#X obj 205 120 pack \$2 \$1;
#X connect 0 0 3 0;
#X connect 1 0 0 0;
#X connect 2 0 6 0;
#X connect 4 0 1 0;
#X connect 5 0 1 1;
#X connect 6 0 5 0;
