#N canvas 577 101 574 499 10;
#X obj 53 293 cos~;
#X obj 53 115 -~ 0.5;
#X obj 53 243 clip~ -0.5 0.5;
#X obj 53 396 hip~ 5;
#X text 113 114 phase -1/2 to 1/2;
#X text 139 91 phase 0 to 1;
#X text 126 397 high pass filter to cut DC;
#X text 41 148 <-- click to graph;
#X text 97 207 increase amplitude;
#X text 187 242 clip back to range -1/2 to 1/2;
#X text 113 294 cosine wave lookup (-1/2 and 1/2 give -1);
#X obj 53 316 +~ 1;
#X obj 53 339 *~ 0.5;
#X text 111 315 add one (range now from 0 to 2);
#X text 119 338 ...and now from 0 to 1;
#X obj 54 458 outlet~;
#X obj 54 38 inlet~;
#X obj 53 91 phasor~ \$1;
#X text 330 47 from F01.pulse;
#X obj 53 207 *~;
#X obj 259 152 +~ 10;
#X obj 260 124 *~ 10;
#X obj 259 98 osc~ 2;
#X obj 54 430 *~ 3;
#X connect 0 0 11 0;
#X connect 1 0 19 0;
#X connect 2 0 0 0;
#X connect 3 0 23 0;
#X connect 11 0 12 0;
#X connect 12 0 3 0;
#X connect 16 0 17 0;
#X connect 17 0 1 0;
#X connect 19 0 2 0;
#X connect 20 0 19 1;
#X connect 21 0 20 0;
#X connect 22 0 21 0;
#X connect 23 0 15 0;
