#N canvas 372 1 437 696 10;
#X obj 223 290 vline~;
#X msg 223 268 1 \$1 \, 0 \$2 \$1;
#X obj 223 314 *~;
#X obj 57 410 *~;
#X obj 223 164 tgl 15 0 empty empty empty 17 7 0 10 -262144 -1 -1 1
1;
#X obj 223 341 *~;
#X msg 223 246 1 700;
#X obj 116 192 *~ 1.5;
#X obj 57 126 sig~ 220;
#X obj 57 96 mtof;
#X obj 57 20 loadbang;
#X obj 223 140 loadbang;
#X obj 57 57 \$2;
#X obj 223 214 metro \$3;
#X msg 69 626 set dac\$1;
#X obj 69 585 random 2;
#X obj 69 606 + 1;
#X obj 69 561 r test-mode;
#X obj 57 647 throw~ dac\$1;
#X obj 57 526 *~ 0.05;
#X obj 56 254 tinosc~;
#X obj 117 290 +~;
#X obj 222 422 *~ 10000;
#X obj 137 223 osc~ 7;
#X obj 147 260 *~ 30;
#X obj 57 491 vcf~ 1;
#X obj 116 326 tinosc~;
#X obj 298 215 s \$1tick;
#X connect 0 0 2 0;
#X connect 0 0 2 1;
#X connect 1 0 0 0;
#X connect 2 0 5 0;
#X connect 2 0 5 1;
#X connect 3 0 25 0;
#X connect 4 0 13 0;
#X connect 5 0 3 1;
#X connect 5 0 22 0;
#X connect 6 0 1 0;
#X connect 7 0 21 0;
#X connect 8 0 7 0;
#X connect 8 0 20 0;
#X connect 9 0 8 0;
#X connect 10 0 12 0;
#X connect 11 0 4 0;
#X connect 12 0 9 0;
#X connect 13 0 6 0;
#X connect 13 0 27 0;
#X connect 14 0 18 0;
#X connect 15 0 16 0;
#X connect 16 0 14 0;
#X connect 17 0 15 0;
#X connect 19 0 18 0;
#X connect 20 0 3 0;
#X connect 21 0 26 0;
#X connect 22 0 25 1;
#X connect 23 0 24 0;
#X connect 24 0 21 1;
#X connect 25 1 19 0;
#X connect 26 0 3 0;
