#N canvas 343 50 796 694 10;
#X obj 292 558 *~;
#X obj 292 583 *~;
#X obj 292 639 outlet~;
#X obj 292 534 vline~;
#X obj 111 134 hsl 128 15 0 500 0 0 \$0attack \$0attack attack -2 -8
0 10 -262144 -1 -1 762 1;
#X obj 111 164 hsl 128 15 0 500 0 0 \$0decay \$0decay decay -2 -8 0
10 -262144 -1 -1 7620 1;
#X obj 111 224 hsl 128 15 0 1 0 0 \$0sustain \$0sustain sustain -2
-8 0 10 -262144 -1 -1 6350 1;
#X obj 111 254 hsl 128 15 0 2000 0 0 \$0release \$0release release
-2 -8 0 10 -262144 -1 -1 635 1;
#X msg 292 486 1 \$1 \, \$3 \$2 \$1 \, 0 \$4 \$5;
#X obj 383 322 +;
#X obj 383 342 +;
#X obj 384 183 t b a;
#X obj 374 203 t b a;
#X obj 364 223 t b a;
#X obj 352 56 r \$0attack;
#X obj 364 76 r \$0decay;
#X obj 394 136 r \$0release;
#X obj 352 404 pack f f f f f;
#X obj 111 194 hsl 128 15 0 1000 0 0 \$0delay \$0delay delay -2 -8
0 10 -262144 -1 -1 5080 1;
#X obj 394 163 t b a;
#X obj 352 250 pack f f f f f;
#X obj 352 274 unpack f f f f f;
#X text 351 531 1 over \$1attack \$3sustain over \$2decay after \$1attack
0 over \$4release after \$5attack+decay+delay;
#X obj 374 96 r \$0delay;
#X obj 384 116 r \$0sustain;
#X obj 579 71 \$0;
#X obj 579 43 loadbang;
#X obj 292 434 list;
#X obj 292 58 inlet;
#X obj 292 455 list trim;
#X msg 579 98 \; \$1attack 30 \; \$1decay 300 \; \$1delay 400 \; \$1sustain
0.5 \; \$1release 100;
#X connect 0 0 1 0;
#X connect 0 0 1 1;
#X connect 1 0 2 0;
#X connect 3 0 0 1;
#X connect 3 0 0 0;
#X connect 8 0 3 0;
#X connect 9 0 10 0;
#X connect 10 0 17 4;
#X connect 11 0 20 0;
#X connect 11 1 20 3;
#X connect 12 0 20 0;
#X connect 12 1 20 2;
#X connect 13 0 20 0;
#X connect 13 1 20 1;
#X connect 14 0 20 0;
#X connect 15 0 13 0;
#X connect 16 0 19 0;
#X connect 17 0 27 1;
#X connect 19 0 20 0;
#X connect 19 1 20 4;
#X connect 20 0 21 0;
#X connect 21 0 9 0;
#X connect 21 0 17 0;
#X connect 21 1 9 1;
#X connect 21 1 17 1;
#X connect 21 2 10 1;
#X connect 21 3 17 2;
#X connect 21 4 17 3;
#X connect 23 0 12 0;
#X connect 24 0 11 0;
#X connect 25 0 30 0;
#X connect 26 0 25 0;
#X connect 27 0 29 0;
#X connect 28 0 27 0;
#X connect 29 0 8 0;
#X coords 0 -1 1 1 150 180 1 100 100;
