#N canvas 0 50 850 446 10;
#X obj 300 62 inlet~;
#X obj 300 356 outlet~;
#X obj 300 298 bob~;
#X obj 404 180 mtof;
#X obj 404 205 pack 0 50;
#X obj 404 230 line~;
#X obj 485 238 line~;
#X msg 184 318 saturation \$1;
#X obj 111 140 hsl 128 15 0 127 0 0 \$0cutoff \$0cutoff cutoff -2 -8
0 10 -262144 -1 -1 6900 1;
#X obj 111 170 hsl 128 15 0 4 0 0 \$0resonance \$0resonance resonance
-2 -8 0 10 -262144 -1 -1 3175 1;
#X obj 111 200 hsl 128 15 0 10 0 0 \$0saturation \$0saturation saturation
-2 -8 0 10 -262144 -1 -1 12700 1;
#X obj 354 62 inlet~;
#X obj 404 148 r \$0cutoff;
#X obj 404 63 inlet~;
#X obj 680 27 loadbang;
#X obj 680 56 \$0;
#X obj 184 288 r \$0saturation;
#X obj 485 205 r \$0resonance;
#X msg 680 81 \; \$1cutoff 69 \; \$1resonance 1 \; \$1saturation 30
;
#X floatatom 455 181 5 0 0 0 - - -, f 5;
#X connect 0 0 2 0;
#X connect 2 0 1 0;
#X connect 3 0 4 0;
#X connect 3 0 19 0;
#X connect 4 0 5 0;
#X connect 5 0 2 1;
#X connect 6 0 2 2;
#X connect 7 0 2 0;
#X connect 11 0 2 1;
#X connect 12 0 3 0;
#X connect 13 0 2 2;
#X connect 14 0 15 0;
#X connect 15 0 18 0;
#X connect 16 0 7 0;
#X connect 17 0 6 0;
#X coords 0 -1 1 1 150 150 1 100 100;
