#N canvas 277 418 763 407 10;
#X obj 281 128 osc~;
#X obj 281 21 inlet~;
#X obj 112 125 hsl 128 15 0.1 127 1 0 \$0freq \$0freq freq -2 -8 0
10 -262144 -1 -1 2100 1;
#X obj 656 132 sig~;
#X obj 656 161 s~ \$0freq;
#X obj 656 107 r \$0freq;
#X obj 297 87 r~ \$0freq;
#X obj 281 219 outlet~;
#X obj 382 130 phasor~;
#X obj 482 90 noise~;
#X obj 382 91 r~ \$0freq;
#X obj 482 153 lop~;
#X obj 503 125 r \$0freq;
#X obj 382 220 outlet~;
#X obj 482 220 outlet~;
#X obj 281 152 *~ 0.5;
#X obj 281 177 +~ 0.5;
#X connect 0 0 15 0;
#X connect 1 0 0 0;
#X connect 3 0 4 0;
#X connect 5 0 3 0;
#X connect 6 0 0 0;
#X connect 8 0 13 0;
#X connect 9 0 11 0;
#X connect 10 0 8 0;
#X connect 11 0 14 0;
#X connect 12 0 11 1;
#X connect 15 0 16 0;
#X connect 16 0 7 0;
#X coords 0 -1 1 1 150 150 1 100 100;
