#N canvas 132 172 501 423 10;
#N canvas 434 50 723 727 kick 0;
#X obj 340 374 vline~;
#X obj 170 793 dac~;
#X obj 179 735 catch~ \$0out;
#X obj 179 762 *~ 0.1;
#X obj 174 651 throw~ \$0out;
#X msg 340 352 1 \$1 \, 0 \$2 \$1;
#X obj 340 398 *~;
#X obj 174 534 *~;
#X obj 340 465 *~;
#X obj 340 266 loadbang;
#X obj 174 316 *~;
#X obj 413 251 bng 15 250 50 0 empty empty empty 17 7 0 10 -262144
-1 -1;
#X obj 340 298 metro 400;
#X obj 184 562 *~ 1000;
#X obj 247 567 hsl 128 15 0 1000 0 0 empty empty empty -2 -8 0 10 -262144
-1 -1 0 1;
#X obj 232 291 *~ 5;
#X obj 174 250 sig~ 30;
#X obj 340 430 *~;
#X msg 340 330 1 1000;
#X obj 175 614 vcf~ 0.1;
#X obj 174 446 cos~;
#X obj 173 369 osc~;
#X obj 228 446 cos~;
#X obj 227 369 osc~;
#X obj 228 423 +~ 0;
#X obj 174 423 +~ 0.1;
#X obj 174 396 *~ 0.3;
#X obj 228 396 *~ 1.3;
#X connect 0 0 6 0;
#X connect 0 0 6 1;
#X connect 2 0 3 0;
#X connect 3 0 1 0;
#X connect 3 0 1 1;
#X connect 5 0 0 0;
#X connect 6 0 17 0;
#X connect 6 0 17 1;
#X connect 7 0 19 0;
#X connect 8 0 7 1;
#X connect 8 0 13 0;
#X connect 8 0 15 0;
#X connect 9 0 12 0;
#X connect 10 0 21 0;
#X connect 10 0 23 0;
#X connect 11 0 12 0;
#X connect 12 0 18 0;
#X connect 13 0 19 1;
#X connect 14 0 13 1;
#X connect 15 0 10 1;
#X connect 16 0 10 0;
#X connect 17 0 8 0;
#X connect 17 0 8 1;
#X connect 18 0 5 0;
#X connect 19 0 4 0;
#X connect 20 0 7 0;
#X connect 21 0 26 0;
#X connect 22 0 7 0;
#X connect 23 0 27 0;
#X connect 24 0 22 0;
#X connect 25 0 20 0;
#X connect 26 0 25 0;
#X connect 27 0 24 0;
#X restore 97 327 pd kick;
#X obj 235 352 multidac~;
#X obj 255 292 s test-mode;
#X obj 255 262 bng 15 250 50 0 empty empty empty 17 7 0 10 -262144
-1 -1;
#X text 276 266 send all to dac1 or dac2;
#X obj 96 60 voice 1 60 600;
#X obj 96 80 voice 2 70 500;
#X obj 96 300 voice 13 89 2200;
#X obj 96 100 voice 3 68 800;
#X obj 96 120 voice 4 75 700;
#X obj 96 140 voice 5 72 1000;
#X obj 96 160 voice 6 44 2000;
#X obj 96 180 voice 7 43 1000;
#X obj 96 220 voice 9 51 1100;
#X obj 96 200 voice 8 41 1200;
#X obj 96 240 voice 10 56 1300;
#X obj 96 260 voice 11 58 1400;
#X obj 96 280 voice 12 91 2100;
#X connect 3 0 2 0;
