#N canvas 321 100 501 423 10;
#N canvas 908 37 732 727 kick 1;
#X obj 340 374 vline~;
#X obj 170 793 dac~;
#X obj 179 735 catch~ \$0out;
#X obj 179 762 *~ 0.1;
#X obj 174 651 throw~ \$0out;
#X msg 340 352 1 \$1 \, 0 \$2 \$1;
#X obj 340 398 *~;
#X obj 174 534 *~;
#X obj 340 465 *~;
#X obj 174 615 bob~;
#X obj 340 266 loadbang;
#X obj 174 316 *~;
#X obj 413 251 bng 15 250 50 0 empty empty empty 17 7 0 10 -262144
-1 -1;
#X obj 340 298 metro 400;
#X obj 184 562 *~ 1000;
#X obj 247 567 hsl 128 15 0 1000 0 0 empty empty empty -2 -8 0 10 -262144
-1 -1 0 1;
#X obj 232 291 *~ 5;
#X obj 174 250 sig~ 30;
#X obj 340 430 *~;
#X msg 340 330 1 1000;
#X obj 195 583 sig~ 2;
#X obj 173 387 blsquare~ 0;
#X obj 201 340 sig~ 0.5;
#X connect 0 0 6 0;
#X connect 0 0 6 1;
#X connect 2 0 3 0;
#X connect 3 0 1 0;
#X connect 3 0 1 1;
#X connect 5 0 0 0;
#X connect 6 0 18 0;
#X connect 6 0 18 1;
#X connect 7 0 9 0;
#X connect 8 0 7 1;
#X connect 8 0 14 0;
#X connect 8 0 16 0;
#X connect 9 0 4 0;
#X connect 10 0 13 0;
#X connect 11 0 21 0;
#X connect 12 0 13 0;
#X connect 13 0 19 0;
#X connect 14 0 9 1;
#X connect 15 0 14 1;
#X connect 16 0 11 1;
#X connect 17 0 11 0;
#X connect 18 0 8 0;
#X connect 18 0 8 1;
#X connect 19 0 5 0;
#X connect 20 0 9 2;
#X connect 21 0 7 0;
#X connect 22 0 21 1;
#X restore 97 327 pd kick;
#X obj 235 352 multidac~;
#X obj 255 292 s test-mode;
#X obj 255 262 bng 15 250 50 0 empty empty empty 17 7 0 10 -262144
-1 -1;
#X text 276 266 send all to dac1 or dac2;
#X connect 3 0 2 0;
