#N canvas 441 33 928 822 10;
#X obj 340 414 vline~;
#X msg 340 392 1 \$1 \, 0 \$2 \$1;
#X obj 340 438 *~;
#X obj 174 534 *~;
#X obj 340 288 tgl 15 0 empty empty empty 17 7 0 10 -262144 -1 -1 1
1;
#X obj 174 378 blsaw~;
#X obj 232 379 blsquare~ 0;
#X obj 263 348 sig~ 0.5;
#X obj 340 465 *~;
#X msg 340 370 1 700;
#X obj 174 615 bob~;
#X obj 184 560 sig~ 440;
#X obj 232 316 *~ 1.5;
#X obj 174 250 sig~ 220;
#X obj 174 220 mtof;
#X obj 174 144 loadbang;
#X obj 371 296 loadbang;
#X obj 174 181 \$2;
#X obj 340 338 metro \$3;
#X obj 342 564 *~ 10000;
#X obj 195 580 sig~ 2;
#X msg 186 750 set dac\$1;
#X obj 186 709 random 2;
#X obj 186 730 + 1;
#X obj 186 685 r test-mode;
#X obj 174 771 throw~ dac\$1;
#X obj 174 650 *~ 0.05;
#X connect 0 0 2 0;
#X connect 0 0 2 1;
#X connect 1 0 0 0;
#X connect 2 0 8 0;
#X connect 2 0 8 1;
#X connect 3 0 10 0;
#X connect 4 0 18 0;
#X connect 5 0 3 0;
#X connect 6 0 3 0;
#X connect 7 0 6 1;
#X connect 8 0 3 1;
#X connect 8 0 19 0;
#X connect 9 0 1 0;
#X connect 10 0 26 0;
#X connect 11 0 10 1;
#X connect 12 0 6 0;
#X connect 13 0 5 0;
#X connect 13 0 12 0;
#X connect 14 0 13 0;
#X connect 15 0 17 0;
#X connect 16 0 4 0;
#X connect 17 0 14 0;
#X connect 18 0 9 0;
#X connect 19 0 10 1;
#X connect 20 0 10 2;
#X connect 21 0 25 0;
#X connect 22 0 23 0;
#X connect 23 0 21 0;
#X connect 24 0 22 0;
#X connect 26 0 25 0;
