#N canvas 633 50 437 696 10;
#X obj 223 290 vline~;
#X msg 223 268 1 \$1 \, 0 \$2 \$1;
#X obj 223 314 *~;
#X obj 57 410 *~;
#X obj 223 164 tgl 15 0 empty empty empty 17 7 0 10 -262144 -1 -1 1
1;
#X obj 223 341 *~;
#X msg 223 246 1 700;
#X obj 115 192 *~ 1.5;
#X obj 57 126 sig~ 220;
#X obj 57 96 mtof;
#X obj 57 20 loadbang;
#X obj 254 172 loadbang;
#X obj 57 57 \$2;
#X obj 223 214 metro \$3;
#X obj 225 440 *~ 10000;
#X msg 69 626 set dac\$1;
#X obj 69 585 random 2;
#X obj 69 606 + 1;
#X obj 69 561 r test-mode;
#X obj 57 647 throw~ dac\$1;
#X obj 57 526 *~ 0.05;
#X obj 57 491 vcf~ 2;
#X obj 57 313 cos~;
#X obj 57 290 +~ 0.1;
#X msg 3 315 0;
#X msg 3 293 0.1;
#X msg 3 337 0.25;
#X obj 56 236 osc~;
#X text 2 273 symmetry;
#X obj 122 316 cos~;
#X obj 121 239 osc~;
#X obj 122 293 +~ 0;
#X obj 57 263 *~ 2;
#X obj 122 266 *~ 3;
#X connect 0 0 2 0;
#X connect 0 0 2 1;
#X connect 1 0 0 0;
#X connect 2 0 5 0;
#X connect 2 0 5 1;
#X connect 3 0 21 0;
#X connect 4 0 13 0;
#X connect 5 0 3 1;
#X connect 5 0 14 0;
#X connect 6 0 1 0;
#X connect 7 0 30 0;
#X connect 8 0 7 0;
#X connect 8 0 27 0;
#X connect 9 0 8 0;
#X connect 10 0 12 0;
#X connect 11 0 4 0;
#X connect 12 0 9 0;
#X connect 13 0 6 0;
#X connect 14 0 21 1;
#X connect 15 0 19 0;
#X connect 16 0 17 0;
#X connect 17 0 15 0;
#X connect 18 0 16 0;
#X connect 20 0 19 0;
#X connect 21 1 20 0;
#X connect 22 0 3 0;
#X connect 23 0 22 0;
#X connect 24 0 23 1;
#X connect 25 0 23 1;
#X connect 26 0 23 1;
#X connect 27 0 32 0;
#X connect 29 0 3 0;
#X connect 30 0 33 0;
#X connect 31 0 29 0;
#X connect 32 0 23 0;
#X connect 33 0 31 0;
