#N canvas 308 50 892 673 10;
#X obj 30 203 -~ 0.5;
#X obj 30 230 throw~ dac;
#X obj 30 154 vline~;
#X obj 110 203 -~ 0.5;
#X obj 110 230 throw~ dac;
#X obj 110 154 vline~;
#X obj 30 35 r \$0go;
#X obj 110 35 r \$0go;
#X obj 220 203 -~ 0.5;
#X obj 220 230 throw~ dac;
#X obj 220 154 vline~;
#X obj 220 35 r \$0go;
#X obj 330 203 -~ 0.5;
#X obj 330 230 throw~ dac;
#X obj 330 154 vline~;
#X obj 330 35 r \$0go;
#X obj 277 171 osc~ 5;
#X obj 167 161 osc~ 4;
#X obj 167 185 *~ 5;
#X obj 277 195 *~ 7;
#X obj 386 169 osc~ 3;
#X obj 386 193 *~ 3;
#X obj 104 346 catch~ dac;
#X obj 49 618 dac~;
#X obj 189 330 vline~;
#X obj 189 354 *~;
#X obj 104 423 *~;
#X obj 189 285 r \$0go;
#X obj 30 178 trisaw~;
#X obj 110 178 trisaw~;
#X obj 220 178 trisaw~;
#X obj 330 178 trisaw~;
#X obj 748 147 bng 15 250 50 0 empty empty empty 17 7 0 10 -262144
-1 -1;
#X obj 748 167 s \$0go;
#X obj 793 140 r startLogo;
#X obj 104 568 *~ 0.1;
#X obj 59 593 +~;
#X obj 748 40 metro 10000;
#X obj 748 19 tgl 15 0 empty empty empty 17 7 0 10 -262144 -1 -1 0
1;
#X obj 198 448 bng 15 250 50 0 empty empty empty 17 7 0 10 -262144
-1 -1;
#X obj 285 509 vline~;
#X obj 163 545 *~;
#X obj 224 446 loadbang;
#X obj 285 450 r \$0go;
#X obj 189 380 *~;
#X obj 124 487 vcf~ 50;
#X obj 198 468 metro 40;
#X obj 198 514 + 600;
#X obj 198 493 random 3000;
#X obj 124 516 *~ 1;
#X msg 285 480 0 \, 1 2000 6000;
#X obj 329 330 vline~;
#X obj 329 354 *~;
#X obj 329 285 r \$0go;
#X obj 329 380 *~;
#X obj 328 403 *~ 3000;
#X obj 73 470 vcf~ 4;
#X msg 189 310 1 200 \, 0 1000 10800;
#X msg 329 310 1 500 \, 0 2000 10000;
#X msg 30 62 80 \, 1200 6500 \, 300 1000 9100;
#X msg 110 82 80 \, 1400 6500 \, 300 900 9200;
#X msg 220 102 80 \, 1600 6500 \, 300 800 9300;
#X msg 330 122 80 \, 2000 6500 \, 300 700 9400;
#X obj 104 618 dac~ 16;
#X connect 0 0 1 0;
#X connect 2 0 28 0;
#X connect 3 0 4 0;
#X connect 5 0 29 0;
#X connect 6 0 59 0;
#X connect 7 0 60 0;
#X connect 8 0 9 0;
#X connect 10 0 30 0;
#X connect 11 0 61 0;
#X connect 12 0 13 0;
#X connect 14 0 31 0;
#X connect 15 0 62 0;
#X connect 16 0 19 0;
#X connect 17 0 18 0;
#X connect 18 0 29 0;
#X connect 19 0 30 0;
#X connect 20 0 21 0;
#X connect 21 0 31 0;
#X connect 22 0 26 0;
#X connect 24 0 25 0;
#X connect 24 0 25 1;
#X connect 25 0 44 0;
#X connect 25 0 44 1;
#X connect 26 0 45 0;
#X connect 26 0 56 0;
#X connect 27 0 57 0;
#X connect 28 0 0 0;
#X connect 29 0 3 0;
#X connect 30 0 8 0;
#X connect 31 0 12 0;
#X connect 32 0 33 0;
#X connect 34 0 33 0;
#X connect 35 0 63 0;
#X connect 36 0 23 0;
#X connect 36 0 23 1;
#X connect 37 0 32 0;
#X connect 38 0 37 0;
#X connect 39 0 46 0;
#X connect 40 0 41 1;
#X connect 41 0 35 0;
#X connect 42 0 46 0;
#X connect 43 0 50 0;
#X connect 44 0 26 1;
#X connect 45 0 49 0;
#X connect 46 0 48 0;
#X connect 47 0 45 1;
#X connect 48 0 47 0;
#X connect 49 0 41 0;
#X connect 50 0 40 0;
#X connect 51 0 52 0;
#X connect 51 0 52 1;
#X connect 52 0 54 0;
#X connect 52 0 54 1;
#X connect 53 0 58 0;
#X connect 54 0 55 0;
#X connect 55 0 56 1;
#X connect 56 0 35 0;
#X connect 57 0 24 0;
#X connect 58 0 51 0;
#X connect 59 0 2 0;
#X connect 60 0 5 0;
#X connect 61 0 10 0;
#X connect 62 0 14 0;
