#N canvas 217 83 552 656 10;
#X obj 30 313 -~ 0.5;
#X obj 30 340 throw~ dac;
#X obj 30 264 vline~;
#X obj 110 313 -~ 0.5;
#X obj 110 340 throw~ dac;
#X obj 110 264 vline~;
#X obj 30 125 r \$0go;
#X obj 110 125 r \$0go;
#X obj 220 313 -~ 0.5;
#X obj 220 340 throw~ dac;
#X obj 220 264 vline~;
#X obj 220 125 r \$0go;
#X obj 330 313 -~ 0.5;
#X obj 330 340 throw~ dac;
#X obj 330 264 vline~;
#X obj 330 125 r \$0go;
#X obj 277 281 osc~ 5;
#X obj 167 271 osc~ 4;
#X obj 167 295 *~ 5;
#X obj 277 305 *~ 7;
#X obj 386 279 osc~ 3;
#X obj 386 303 *~ 3;
#X obj 104 406 catch~ dac;
#X obj 49 618 dac~;
#X obj 199 420 vline~;
#X obj 199 450 *~;
#X obj 104 483 *~;
#X obj 199 375 r \$0go;
#X obj 30 288 trisaw~;
#X obj 110 288 trisaw~;
#X obj 220 288 trisaw~;
#X obj 330 288 trisaw~;
#X obj 300 45 bng 15 250 50 0 empty empty empty 17 7 0 10 -262144 -1
-1;
#X obj 300 65 s \$0go;
#X obj 345 38 r startLogo;
#X obj 104 548 *~ 0.1;
#X obj 54 578 *~;
#X obj 149 618 dac~ 32;
#X msg 30 152 80 \, 1200 8000 \, 300 1000 9000;
#X msg 110 182 80 \, 1400 8000 \, 300 900 9100;
#X msg 220 202 80 \, 1600 8000 \, 300 800 9200;
#X msg 330 242 80 \, 2000 8000 \, 300 700 9300;
#X msg 199 400 1 100 \, 0 1000 9000;
#X connect 0 0 1 0;
#X connect 2 0 28 0;
#X connect 3 0 4 0;
#X connect 5 0 29 0;
#X connect 6 0 38 0;
#X connect 7 0 39 0;
#X connect 8 0 9 0;
#X connect 10 0 30 0;
#X connect 11 0 40 0;
#X connect 12 0 13 0;
#X connect 14 0 31 0;
#X connect 15 0 41 0;
#X connect 16 0 19 0;
#X connect 17 0 18 0;
#X connect 18 0 29 0;
#X connect 19 0 30 0;
#X connect 20 0 21 0;
#X connect 21 0 31 0;
#X connect 22 0 26 0;
#X connect 24 0 25 0;
#X connect 24 0 25 1;
#X connect 25 0 26 1;
#X connect 26 0 35 0;
#X connect 27 0 42 0;
#X connect 28 0 0 0;
#X connect 29 0 3 0;
#X connect 30 0 8 0;
#X connect 31 0 12 0;
#X connect 32 0 33 0;
#X connect 34 0 33 0;
#X connect 35 0 37 0;
#X connect 36 0 23 0;
#X connect 36 0 23 1;
#X connect 38 0 2 0;
#X connect 39 0 5 0;
#X connect 40 0 10 0;
#X connect 41 0 14 0;
#X connect 42 0 24 0;
