#N canvas 245 22 1195 756 10;
#X obj 35 548 mtof;
#X obj 35 593 s note;
#X obj 36 418 multidac~;
#X obj 36 389 s test-mode;
#X obj 36 359 bng 15 250 50 0 empty empty empty 17 7 0 10 -262144 -1
-1;
#X text 57 363 send all to dac1 or dac2;
#N canvas 486 212 677 592 perc 0;
#X obj 23 286 noise~;
#X obj 23 323 vcf~ 1;
#X obj 123 107 t b;
#X obj 23 451 *~;
#X obj 213 286 noise~;
#X obj 213 459 *~;
#X obj 413 246 noise~;
#X obj 413 451 *~;
#X obj 213 323 vcf~ 2;
#X obj 413 323 vcf~ 8;
#X obj 256 424 ar4~ 0 50;
#X obj 53 384 ar4~ 0 51;
#X obj 481 240 del 15;
#X obj 213 557 outlet~;
#X obj 123 48 r beat;
#X obj 104 342 *~ 8000;
#X obj 301 374 *~ 4400;
#X obj 256 293 del 13;
#X obj 512 343 *~ 3200;
#X obj 481 384 ar4~ 0 50;
#X obj 213 497 *~ 0.05;
#X obj 123 81 sel 6;
#X obj 213 522 *~;
#X obj 403 499 r dayNight;
#X obj 403 524 + 1;
#X obj 403 548 / 2;
#X connect 0 0 1 0;
#X connect 1 0 3 0;
#X connect 2 0 11 0;
#X connect 2 0 12 0;
#X connect 2 0 17 0;
#X connect 3 0 20 0;
#X connect 4 0 8 0;
#X connect 5 0 20 0;
#X connect 6 0 9 0;
#X connect 7 0 20 0;
#X connect 8 0 5 0;
#X connect 9 0 7 0;
#X connect 10 0 5 1;
#X connect 10 0 16 0;
#X connect 11 0 3 1;
#X connect 11 0 15 0;
#X connect 12 0 19 0;
#X connect 14 0 21 0;
#X connect 15 0 1 1;
#X connect 16 0 8 1;
#X connect 17 0 10 0;
#X connect 18 0 9 1;
#X connect 19 0 18 0;
#X connect 19 0 7 1;
#X connect 20 0 22 0;
#X connect 21 0 2 0;
#X connect 22 0 13 0;
#X connect 23 0 24 0;
#X connect 24 0 25 0;
#X connect 25 0 22 1;
#X restore 937 420 pd perc;
#X obj 35 472 keypiano;
#X obj 35 448 tgl 15 0 empty empty empty 17 7 0 10 -262144 -1 -1 0
1;
#X obj 35 571 minipoly 9;
#X floatatom 391 698 5 0 0 0 - - -, f 5;
#X obj 421 592 bng 15 250 50 0 empty empty empty 17 7 0 10 -262144
-1 -1;
#N canvas 0 22 1012 552 kick 0;
#X obj 89 249 osc~;
#X obj 39 310 *~;
#X obj 89 227 *~ 100;
#X obj 39 249 osc~;
#X obj 39 227 *~ 200;
#X obj 49 358 throw~ dac1;
#X obj 39 378 throw~ dac2;
#X obj 436 9 inlet;
#X obj 436 42 sel 1 2 3;
#X obj 399 249 osc~;
#X obj 398 310 *~;
#X obj 398 197 *~ 100;
#X obj 349 249 osc~;
#X obj 408 358 throw~ dac1;
#X obj 398 378 throw~ dac2;
#X obj 349 197 *~ 300;
#X obj 709 249 osc~;
#X obj 708 310 *~;
#X obj 659 249 osc~;
#X obj 718 358 throw~ dac1;
#X obj 708 378 throw~ dac2;
#X obj 659 197 *~ 300;
#X obj 708 197 *~ 400;
#X obj 39 126 ar4~ 2 828;
#X obj 39 332 *~ 0.2;
#X obj 398 332 *~ 0.2;
#X obj 708 332 *~ 0.2;
#X obj 453 246 ar4~ 5 500;
#X obj 763 246 ar4~ 10 300;
#X connect 0 0 1 0;
#X connect 1 0 24 0;
#X connect 2 0 0 0;
#X connect 3 0 1 0;
#X connect 4 0 3 0;
#X connect 7 0 8 0;
#X connect 8 0 23 0;
#X connect 8 1 27 0;
#X connect 8 2 28 0;
#X connect 9 0 10 0;
#X connect 10 0 25 0;
#X connect 11 0 9 0;
#X connect 12 0 10 0;
#X connect 15 0 12 0;
#X connect 16 0 17 0;
#X connect 17 0 26 0;
#X connect 18 0 17 0;
#X connect 21 0 18 0;
#X connect 22 0 16 0;
#X connect 23 0 1 1;
#X connect 23 0 2 0;
#X connect 23 0 4 0;
#X connect 24 0 5 0;
#X connect 24 0 6 0;
#X connect 25 0 13 0;
#X connect 25 0 14 0;
#X connect 26 0 19 0;
#X connect 26 0 20 0;
#X connect 27 0 10 1;
#X connect 27 0 11 0;
#X connect 27 0 15 0;
#X connect 28 0 17 1;
#X connect 28 0 21 0;
#X connect 28 0 22 0;
#X restore 370 721 pd kick;
#X floatatom 601 698 5 0 0 0 - - -, f 5;
#X obj 631 592 bng 15 250 50 0 empty empty empty 17 7 0 10 -262144
-1 -1;
#N canvas 0 22 1012 552 kick 0;
#X obj 436 9 inlet;
#X obj 436 42 sel 1 2 3;
#X obj 708 310 *~;
#X obj 718 358 throw~ dac1;
#X obj 708 378 throw~ dac2;
#X obj 768 197 *~ 300;
#X obj 818 197 *~ 400;
#X obj 818 249 phasor~;
#X obj 818 275 -~ 0.5;
#X obj 768 249 phasor~;
#X obj 768 275 -~ 0.5;
#X obj 708 249 phasor~;
#X obj 708 275 -~ 0.5;
#X obj 708 197 *~ 366;
#X obj 906 276 *~ 1;
#X obj 708 116 ar4~ 10 100;
#X obj 453 310 *~;
#X obj 463 358 throw~ dac1;
#X obj 453 378 throw~ dac2;
#X obj 563 197 *~ 400;
#X obj 563 249 phasor~;
#X obj 563 275 -~ 0.5;
#X obj 513 249 phasor~;
#X obj 513 275 -~ 0.5;
#X obj 453 249 phasor~;
#X obj 453 275 -~ 0.5;
#X obj 651 276 *~ 1;
#X obj 453 197 *~ 1200;
#X obj 513 197 *~ 5000;
#X obj 183 310 *~;
#X obj 193 358 throw~ dac1;
#X obj 183 378 throw~ dac2;
#X obj 293 249 phasor~;
#X obj 293 275 -~ 0.5;
#X obj 243 249 phasor~;
#X obj 243 275 -~ 0.5;
#X obj 183 249 phasor~;
#X obj 183 275 -~ 0.5;
#X obj 381 276 *~ 1;
#X obj 243 197 *~ 8000;
#X obj 183 197 *~ 400;
#X obj 293 197 *~ 401;
#X obj 183 332 *~ 0.1;
#X obj 453 332 *~ 0.1;
#X obj 708 332 *~ 0.1;
#X obj 453 116 ar4~ 10 80;
#X obj 183 116 ar4~ 20 40;
#X connect 0 0 1 0;
#X connect 1 0 46 0;
#X connect 1 1 45 0;
#X connect 1 2 15 0;
#X connect 2 0 44 0;
#X connect 5 0 9 0;
#X connect 6 0 7 0;
#X connect 7 0 8 0;
#X connect 8 0 2 0;
#X connect 9 0 10 0;
#X connect 10 0 2 0;
#X connect 11 0 12 0;
#X connect 12 0 2 0;
#X connect 13 0 11 0;
#X connect 14 0 2 1;
#X connect 15 0 5 0;
#X connect 15 0 6 0;
#X connect 15 0 13 0;
#X connect 15 0 14 0;
#X connect 16 0 43 0;
#X connect 19 0 20 0;
#X connect 20 0 21 0;
#X connect 21 0 16 0;
#X connect 22 0 23 0;
#X connect 23 0 16 0;
#X connect 24 0 25 0;
#X connect 25 0 16 0;
#X connect 26 0 16 1;
#X connect 27 0 24 0;
#X connect 28 0 22 0;
#X connect 29 0 42 0;
#X connect 32 0 33 0;
#X connect 33 0 29 0;
#X connect 34 0 35 0;
#X connect 35 0 29 0;
#X connect 36 0 37 0;
#X connect 37 0 29 0;
#X connect 38 0 29 1;
#X connect 39 0 34 0;
#X connect 40 0 36 0;
#X connect 41 0 32 0;
#X connect 42 0 30 0;
#X connect 42 0 31 0;
#X connect 43 0 17 0;
#X connect 43 0 18 0;
#X connect 44 0 3 0;
#X connect 44 0 4 0;
#X connect 45 0 19 0;
#X connect 45 0 26 0;
#X connect 45 0 27 0;
#X connect 45 0 28 0;
#X connect 46 0 38 0;
#X connect 46 0 39 0;
#X connect 46 0 40 0;
#X connect 46 0 41 0;
#X restore 580 721 pd kick;
#X msg 756 206 0 2 3 5 7 9 10 12;
#X obj 756 184 loadbang;
#N canvas 0 22 451 387 NOTES 0;
#X text 74 56 Tempo (1/2 \, 1/3 \, 1/4 \, 1/8 \, 1/16) Length 4-20
beats Envelope attack and decay Filter strength and resonance Rests
Scale Delay Global params Reverb Filter Portamento;
#X restore 79 20 pd NOTES;
#X obj 421 631 phrase 16 0 50 4;
#X obj 778 20 hsl 128 15 0 100 0 0 empty empty empty -2 -8 0 10 -262144
-1 -1 0 1;
#X obj 780 76 bng 15 250 50 0 empty empty empty 17 7 0 10 -262144 -1
-1;
#X obj 780 96 s new-phrase;
#X obj 756 329 s scale;
#X obj 775 40 s density;
#X msg 766 236 0 2 4 5 7 9 11 12;
#X floatatom 801 698 5 0 0 0 - - -, f 5;
#X obj 831 592 bng 15 250 50 0 empty empty empty 17 7 0 10 -262144
-1 -1;
#N canvas 0 22 1012 552 kick 0;
#X obj 436 9 inlet;
#X obj 436 42 sel 1 2 3;
#X obj 708 310 *~;
#X obj 718 358 throw~ dac1;
#X obj 708 378 throw~ dac2;
#X obj 768 197 *~ 300;
#X obj 818 197 *~ 400;
#X obj 818 249 phasor~;
#X obj 818 275 -~ 0.5;
#X obj 768 249 phasor~;
#X obj 768 275 -~ 0.5;
#X obj 708 249 phasor~;
#X obj 708 275 -~ 0.5;
#X obj 708 197 *~ 366;
#X obj 906 276 *~ 1;
#X obj 708 116 ar4~ 10 100;
#X obj 453 310 *~;
#X obj 463 358 throw~ dac1;
#X obj 453 378 throw~ dac2;
#X obj 563 197 *~ 400;
#X obj 563 249 phasor~;
#X obj 563 275 -~ 0.5;
#X obj 513 249 phasor~;
#X obj 513 275 -~ 0.5;
#X obj 453 249 phasor~;
#X obj 453 275 -~ 0.5;
#X obj 651 276 *~ 1;
#X obj 453 197 *~ 1200;
#X obj 513 197 *~ 5000;
#X obj 183 310 *~;
#X obj 193 358 throw~ dac1;
#X obj 183 378 throw~ dac2;
#X obj 293 249 phasor~;
#X obj 293 275 -~ 0.5;
#X obj 243 249 phasor~;
#X obj 243 275 -~ 0.5;
#X obj 183 249 phasor~;
#X obj 183 275 -~ 0.5;
#X obj 381 276 *~ 1;
#X obj 243 197 *~ 8000;
#X obj 183 197 *~ 400;
#X obj 293 197 *~ 401;
#X obj 708 332 *~ 0.05;
#X obj 183 332 *~ 0.06;
#X obj 453 332 *~ 0.03;
#X obj 453 116 ar4~ 10 110;
#X obj 183 116 ar4~ 20 90;
#X connect 0 0 1 0;
#X connect 1 0 46 0;
#X connect 1 1 45 0;
#X connect 1 2 15 0;
#X connect 2 0 42 0;
#X connect 5 0 9 0;
#X connect 6 0 7 0;
#X connect 7 0 8 0;
#X connect 8 0 2 0;
#X connect 9 0 10 0;
#X connect 10 0 2 0;
#X connect 11 0 12 0;
#X connect 12 0 2 0;
#X connect 13 0 11 0;
#X connect 14 0 2 1;
#X connect 15 0 5 0;
#X connect 15 0 6 0;
#X connect 15 0 13 0;
#X connect 15 0 14 0;
#X connect 16 0 44 0;
#X connect 19 0 20 0;
#X connect 20 0 21 0;
#X connect 21 0 16 0;
#X connect 22 0 23 0;
#X connect 23 0 16 0;
#X connect 24 0 25 0;
#X connect 25 0 16 0;
#X connect 26 0 16 1;
#X connect 27 0 24 0;
#X connect 28 0 22 0;
#X connect 29 0 43 0;
#X connect 32 0 33 0;
#X connect 33 0 29 0;
#X connect 34 0 35 0;
#X connect 35 0 29 0;
#X connect 36 0 37 0;
#X connect 37 0 29 0;
#X connect 38 0 29 1;
#X connect 39 0 34 0;
#X connect 40 0 36 0;
#X connect 41 0 32 0;
#X connect 42 0 3 0;
#X connect 42 0 4 0;
#X connect 43 0 30 0;
#X connect 43 0 31 0;
#X connect 44 0 17 0;
#X connect 44 0 18 0;
#X connect 45 0 19 0;
#X connect 45 0 26 0;
#X connect 45 0 27 0;
#X connect 45 0 28 0;
#X connect 46 0 38 0;
#X connect 46 0 39 0;
#X connect 46 0 40 0;
#X connect 46 0 41 0;
#X restore 780 721 pd kick;
#X obj 924 264 s root;
#X obj 415 144 tgl 15 0 empty empty empty 17 7 0 10 -262144 -1 -1 0
1;
#X obj 415 205 f;
#X obj 445 205 + 1;
#X obj 580 530 r beat;
#X obj 580 558 sel 0;
#X obj 631 631 phrase 16 0 90 4;
#X obj 920 458 dac~ 1 2;
#X floatatom 924 220 5 0 0 0 - - -, f 5;
#X obj 415 175 metro 1 11520 permin;
#X obj 474 205 mod 11520;
#X obj 495 308 mod 96;
#X obj 495 330 sel 0;
#X obj 495 376 s beat;
#X msg 495 351 4;
#X obj 467 89 * 96;
#X msg 460 41 120;
#X msg 490 41 100;
#X text 455 144 96ppqn * 120 = 11520;
#X obj 445 330 sel 0;
#X obj 445 376 s beat;
#X obj 445 308 mod 64;
#X msg 445 351 3;
#X obj 545 330 sel 0;
#X obj 545 376 s beat;
#X obj 545 308 mod 48;
#X obj 595 330 sel 0;
#X obj 595 376 s beat;
#X msg 545 351 5;
#X msg 595 351 6;
#X obj 595 308 mod 24;
#X obj 395 330 sel 0;
#X obj 395 376 s beat;
#X obj 395 308 mod 32;
#X msg 395 351 2;
#X text 504 396 1/4;
#X text 454 396 1/4T;
#X text 554 396 1/8;
#X text 604 396 1/16;
#X obj 645 330 sel 0;
#X obj 645 376 s beat;
#X msg 645 351 7;
#X text 654 396 1/32;
#X obj 645 308 mod 12;
#X text 394 396 1/8T;
#X obj 335 330 sel 0;
#X obj 335 376 s beat;
#X obj 335 308 mod 16;
#X text 334 396 1/16T;
#X obj 285 330 sel 0;
#X obj 285 376 s beat;
#X text 284 396 1/32T;
#X msg 335 351 1;
#X obj 285 308 mod 8;
#X msg 285 351 0;
#X obj 780 530 r beat;
#X obj 780 558 sel 0;
#X obj 370 528 r beat;
#X obj 135 587 bng 15 250 50 0 empty empty empty 17 7 0 10 -262144
-1 -1;
#X obj 154 640 s new-phrase;
#X msg 98 688 0 2 3 5 7 9 10 12;
#X obj 135 666 s test-mode;
#X obj 98 716 s scale;
#X obj 33 163 voice 1;
#X obj 652 592 r new-phrase;
#X obj 852 592 r new-phrase;
#X obj 442 592 r new-phrase;
#X obj 624 558 random 7;
#X obj 824 558 random 7;
#X obj 370 556 sel 4;
#X obj 370 662 list-loop;
#X obj 580 662 list-loop;
#X obj 780 662 list-loop;
#X obj 975 611 s decay-time;
#X obj 978 583 hsl 128 15 0 1000 0 0 empty empty empty -2 -8 0 10 -262144
-1 -1 3530 1;
#X obj 831 631 phrase 16 0 60 4;
#X msg 467 115 tempo \$1 permin;
#X msg 520 41 80;
#X text 16 61 TODO: modulate tempo from 120 to 100 at night send filter
freq of lfo to objects \, or use rotation send voice note 36-96 as
0-1 send decay time and pulse accordingly use daynight for density
too? rotation for decay-time? root/scale modulation? chromatic modulation
is super cool!!! daynight for hihats change phrase per voice on spawn
;
#X obj 988 34 r daycycle;
#X obj 388 84 loadbang;
#X obj 845 177 s new-phrase;
#X obj 188 491 r pitchesByVoice;
#X obj 187 524 route 1;
#X obj 187 547 print;
#X obj 1007 112 metro 13;
#X obj 1007 89 loadbang;
#X obj 1080 88 bng 15 250 50 0 empty empty empty 17 7 0 10 -262144
-1 -1;
#X obj 1007 133 s snapshot;
#X obj 975 510 r dayNight;
#X obj 975 537 + 1.1;
#X obj 975 558 * 500;
#X obj 240 673 snapshot~;
#X obj 309 640 metro 20;
#X obj 240 641 osc~ 0.01;
#X obj 240 696 s dayNight;
#X obj 1069 611 s portamento-time;
#X obj 1069 556 / 8;
#X obj 93 163 voice 9;
#X obj 33 183 voice 2;
#X obj 33 203 voice 3;
#X obj 33 223 voice 4;
#X obj 33 243 voice 5;
#X obj 33 263 voice 6;
#X obj 33 283 voice 7;
#X obj 33 303 voice 8;
#X obj 93 183 voice 10;
#X obj 93 203 voice 11;
#X obj 93 223 voice 12;
#X obj 93 243 voice 13;
#X obj 93 263 voice 14;
#X obj 93 283 voice 15;
#X obj 93 303 voice 16;
#X obj 153 163 voice 17;
#X obj 153 183 voice 18;
#X obj 153 203 voice 19;
#X obj 153 223 voice 20;
#X obj 153 243 voice 21;
#X obj 153 263 voice 22;
#X obj 153 283 voice 23;
#X obj 153 303 voice 24;
#X obj 213 163 voice 25;
#X obj 213 183 voice 26;
#X obj 213 203 voice 27;
#X obj 213 223 voice 28;
#X obj 213 243 voice 29;
#X obj 213 263 voice 30;
#X obj 213 283 voice 31;
#X connect 0 0 9 0;
#X connect 4 0 3 0;
#X connect 6 0 36 0;
#X connect 6 0 36 1;
#X connect 7 0 0 0;
#X connect 8 0 7 0;
#X connect 9 0 1 0;
#X connect 11 0 19 0;
#X connect 14 0 35 0;
#X connect 16 0 23 0;
#X connect 17 0 16 0;
#X connect 17 0 110 0;
#X connect 19 0 99 1;
#X connect 20 0 24 0;
#X connect 21 0 22 0;
#X connect 25 0 23 0;
#X connect 27 0 104 0;
#X connect 30 0 38 0;
#X connect 31 0 32 0;
#X connect 31 0 40 0;
#X connect 31 0 50 0;
#X connect 31 0 62 0;
#X connect 31 0 54 0;
#X connect 31 0 59 0;
#X connect 31 0 76 0;
#X connect 31 0 82 0;
#X connect 31 0 72 0;
#X connect 32 0 39 0;
#X connect 33 0 34 0;
#X connect 35 0 100 1;
#X connect 37 0 29 0;
#X connect 38 0 31 0;
#X connect 39 0 31 1;
#X connect 40 0 41 0;
#X connect 41 0 43 0;
#X connect 43 0 42 0;
#X connect 44 0 105 0;
#X connect 44 0 39 1;
#X connect 45 0 44 0;
#X connect 46 0 44 0;
#X connect 48 0 51 0;
#X connect 50 0 48 0;
#X connect 51 0 49 0;
#X connect 52 0 57 0;
#X connect 54 0 52 0;
#X connect 55 0 58 0;
#X connect 57 0 53 0;
#X connect 58 0 56 0;
#X connect 59 0 55 0;
#X connect 60 0 63 0;
#X connect 62 0 60 0;
#X connect 63 0 61 0;
#X connect 68 0 70 0;
#X connect 70 0 69 0;
#X connect 72 0 68 0;
#X connect 74 0 81 0;
#X connect 76 0 74 0;
#X connect 78 0 83 0;
#X connect 81 0 75 0;
#X connect 82 0 78 0;
#X connect 83 0 79 0;
#X connect 84 0 85 0;
#X connect 86 0 98 0;
#X connect 87 0 88 0;
#X connect 87 0 89 0;
#X connect 87 0 90 0;
#X connect 87 0 122 0;
#X connect 89 0 91 0;
#X connect 93 0 35 0;
#X connect 93 0 96 0;
#X connect 94 0 97 0;
#X connect 94 0 104 0;
#X connect 95 0 19 0;
#X connect 96 0 34 1;
#X connect 97 0 85 1;
#X connect 99 0 10 0;
#X connect 99 0 12 0;
#X connect 100 0 13 0;
#X connect 100 0 15 0;
#X connect 101 0 26 0;
#X connect 101 0 28 0;
#X connect 103 0 102 0;
#X connect 104 0 101 1;
#X connect 105 0 38 0;
#X connect 106 0 44 0;
#X connect 109 0 38 0;
#X connect 112 0 113 0;
#X connect 114 0 117 0;
#X connect 115 0 114 0;
#X connect 116 0 114 0;
#X connect 118 0 119 0;
#X connect 119 0 120 0;
#X connect 120 0 103 0;
#X connect 120 0 126 0;
#X connect 121 0 124 0;
#X connect 122 0 121 0;
#X connect 123 0 121 0;
#X connect 126 0 125 0;
