#N canvas 276 50 1164 674 10;
#X obj 362 89 f;
#X obj 386 89 + 1;
#X obj 362 42 tgl 15 0 empty empty empty 17 7 0 10 -262144 -1 -1 1
1;
#X obj 336 89 bng 15 50 10 0 empty empty empty 17 7 0 10 -262144 -1
-1;
#X obj 362 125 sel 0 3;
#X obj 410 89 mod 16;
#X obj 362 65 metro 333;
#X msg 362 162 0 \, 4 \, 7;
#X msg 381 182 4 \, 9 \, 12;
#X obj 362 386 mtof;
#X obj 362 431 s note;
#X obj 618 463 osc~;
#X obj 617 524 *~;
#X obj 618 411 *~ 100;
#X obj 568 463 osc~;
#X obj 568 411 *~ 200;
#X obj 507 66 s tempo;
#X obj 264 75 s tick;
#X obj 653 525 hsl 128 15 0 1 0 0 empty empty empty -2 -8 0 10 -262144
-1 -1 2100 1;
#X obj 617 546 *~ 0.1;
#X obj 452 332 keypiano 8;
#X obj 452 309 tgl 15 0 empty empty empty 17 7 0 10 -262144 -1 -1 0
1;
#X obj 402 330 + 48;
#X msg 462 148 4;
#X msg 515 208 9;
#X obj 462 125 sel 14 0 2 4;
#X msg 479 168 7;
#X msg 496 188 12;
#X obj 444 364 + 96;
#X obj 709 430 hsl 128 15 0 127 0 0 empty empty empty -2 -8 0 10 -262144
-1 -1 1600 1;
#X obj 672 460 ar4~ 127 828;
#X obj 362 330 + 60;
#X obj 362 409 minipoly 8;
#X obj 362 21 loadbang;
#X obj 35 576 s voiceTicks;
#X text 52 551 send to haskell;
#X obj 190 571 multidac~;
#X obj 187 544 s test-mode;
#X obj 187 514 bng 15 250 50 0 empty empty empty 17 7 0 10 -262144
-1 -1;
#X text 208 518 send all to dac1 or dac2;
#X obj 35 444 r note;
#X obj 35 474 unpack f f;
#X obj 141 352 loadbang;
#X obj 141 414 / 44100;
#X obj 141 439 * 1000;
#X text 39 367 add OpenAL buffer-size delay to trigger message;
#X obj 35 519 pipe;
#X obj 627 572 throw~ dac1;
#X obj 684 377 s kickTick;
#X obj 21 405 r kickTick;
#X msg 684 352 1;
#X msg 141 379 128;
#N canvas 0 22 677 564 perc 0;
#X obj 23 286 noise~;
#X obj 23 323 vcf~ 1;
#X obj 123 107 t b;
#X obj 23 451 *~;
#X obj 123 78 r tick;
#X obj 213 286 noise~;
#X obj 213 459 *~;
#X obj 413 246 noise~;
#X obj 446 384 vline~;
#X obj 446 409 *~;
#X msg 446 355 1 \, 0 50;
#X obj 446 433 *~;
#X obj 413 451 *~;
#X obj 213 323 vcf~ 2;
#X obj 104 342 *~ 1000;
#X obj 328 387 *~ 1200;
#X obj 413 323 vcf~ 8;
#X obj 512 343 *~ 60;
#X obj 256 424 ar4~ 0 50;
#X obj 53 384 ar4~ 0 51;
#X obj 481 240 del 15;
#X obj 256 283 del 5;
#X obj 57 211 hsl 128 15 0 10000 0 0 empty empty empty -2 -8 0 10 -262144
-1 -1 0 1;
#X obj 280 165 hsl 128 15 0 10000 0 0 empty empty empty -2 -8 0 10
-262144 -1 -1 0 1;
#X obj 243 95 hsl 128 15 0 127 0 0 empty empty empty -2 -8 0 10 -262144
-1 -1 0 1;
#X obj 458 136 hsl 128 15 0 127 0 0 empty empty empty -2 -8 0 10 -262144
-1 -1 0 1;
#X obj 420 199 hsl 128 15 0 10000 0 0 empty empty empty -2 -8 0 10
-262144 -1 -1 0 1;
#X obj 213 497 *~ 0.01;
#X obj 213 517 outlet~;
#X connect 0 0 1 0;
#X connect 1 0 3 0;
#X connect 2 0 19 0;
#X connect 2 0 20 0;
#X connect 2 0 21 0;
#X connect 3 0 27 0;
#X connect 4 0 2 0;
#X connect 5 0 13 0;
#X connect 6 0 27 0;
#X connect 7 0 16 0;
#X connect 8 0 9 1;
#X connect 8 0 9 0;
#X connect 9 0 11 1;
#X connect 9 0 11 0;
#X connect 10 0 8 0;
#X connect 11 0 12 1;
#X connect 11 0 17 0;
#X connect 12 0 27 0;
#X connect 13 0 6 0;
#X connect 14 0 1 1;
#X connect 15 0 13 1;
#X connect 16 0 12 0;
#X connect 17 0 16 1;
#X connect 18 0 15 0;
#X connect 18 0 6 1;
#X connect 19 0 3 1;
#X connect 19 0 14 0;
#X connect 20 0 10 0;
#X connect 21 0 18 0;
#X connect 22 0 14 1;
#X connect 23 0 15 1;
#X connect 24 0 21 1;
#X connect 25 0 20 1;
#X connect 26 0 17 1;
#X connect 27 0 28 0;
#X restore 663 13 pd perc;
#X obj 617 592 throw~ dac2;
#X obj 63 123 voice 2;
#X obj 63 143 voice 3;
#X obj 63 163 voice 4;
#X obj 63 183 voice 5;
#X obj 63 203 voice 6;
#X obj 63 223 voice 7;
#X obj 63 243 voice 8;
#X obj 63 263 voice 9;
#X obj 672 248 r tick;
#X obj 672 272 f;
#X obj 699 272 + 1;
#X obj 728 272 % 2;
#X obj 672 329 t a;
#X obj 672 299 sel 0;
#X obj 719 480 hsl 128 15 0 127 0 0 empty empty empty -2 -8 0 10 -262144
-1 -1 7000 1;
#X obj 716 500 * 10;
#X connect 0 0 1 0;
#X connect 0 0 4 0;
#X connect 0 0 25 0;
#X connect 1 0 5 0;
#X connect 2 0 6 0;
#X connect 4 0 7 0;
#X connect 4 1 8 0;
#X connect 5 0 0 1;
#X connect 6 0 0 0;
#X connect 6 0 3 0;
#X connect 6 0 17 0;
#X connect 7 0 31 0;
#X connect 8 0 31 0;
#X connect 9 0 32 0;
#X connect 11 0 12 0;
#X connect 12 0 19 0;
#X connect 13 0 11 0;
#X connect 14 0 12 0;
#X connect 15 0 14 0;
#X connect 18 0 19 1;
#X connect 19 0 47 0;
#X connect 19 0 53 0;
#X connect 20 0 28 0;
#X connect 21 0 20 0;
#X connect 22 0 9 0;
#X connect 23 0 22 0;
#X connect 24 0 22 0;
#X connect 25 0 23 0;
#X connect 25 1 26 0;
#X connect 25 2 27 0;
#X connect 25 3 24 0;
#X connect 26 0 22 0;
#X connect 27 0 22 0;
#X connect 28 0 9 0;
#X connect 29 0 30 1;
#X connect 30 0 12 1;
#X connect 30 0 13 0;
#X connect 30 0 15 0;
#X connect 31 0 9 0;
#X connect 32 0 10 0;
#X connect 33 0 2 0;
#X connect 38 0 37 0;
#X connect 40 0 41 0;
#X connect 41 0 46 0;
#X connect 42 0 51 0;
#X connect 43 0 44 0;
#X connect 44 0 46 1;
#X connect 46 0 34 0;
#X connect 49 0 46 0;
#X connect 50 0 48 0;
#X connect 51 0 43 0;
#X connect 62 0 63 0;
#X connect 63 0 64 0;
#X connect 63 0 67 0;
#X connect 64 0 65 0;
#X connect 65 0 63 1;
#X connect 66 0 30 0;
#X connect 66 0 50 0;
#X connect 67 0 66 0;
#X connect 68 0 69 0;
#X connect 69 0 30 2;
