#N canvas 245 5 1181 756 10;
#X obj 362 42 tgl 15 0 empty empty empty 17 7 0 10 -262144 -1 -1 0
1;
#X obj 278 326 mtof;
#X obj 278 371 s note;
#X obj 362 91 s tick;
#X obj 362 21 loadbang;
#X obj 66 358 multidac~;
#X obj 66 329 s test-mode;
#X obj 66 299 bng 15 250 50 0 empty empty empty 17 7 0 10 -262144 -1
-1;
#X text 87 303 send all to dac1 or dac2;
#N canvas 0 22 677 564 perc 0;
#X obj 23 286 noise~;
#X obj 23 323 vcf~ 1;
#X obj 123 107 t b;
#X obj 23 451 *~;
#X obj 123 78 r tick;
#X obj 213 286 noise~;
#X obj 213 459 *~;
#X obj 413 246 noise~;
#X obj 446 384 vline~;
#X obj 446 409 *~;
#X msg 446 355 1 \, 0 50;
#X obj 446 433 *~;
#X obj 413 451 *~;
#X obj 213 323 vcf~ 2;
#X obj 104 342 *~ 1000;
#X obj 328 387 *~ 1200;
#X obj 413 323 vcf~ 8;
#X obj 512 343 *~ 60;
#X obj 256 424 ar4~ 0 50;
#X obj 53 384 ar4~ 0 51;
#X obj 481 240 del 15;
#X obj 256 283 del 5;
#X obj 57 211 hsl 128 15 0 10000 0 0 empty empty empty -2 -8 0 10 -262144
-1 -1 0 1;
#X obj 280 165 hsl 128 15 0 10000 0 0 empty empty empty -2 -8 0 10
-262144 -1 -1 0 1;
#X obj 243 95 hsl 128 15 0 127 0 0 empty empty empty -2 -8 0 10 -262144
-1 -1 0 1;
#X obj 458 136 hsl 128 15 0 127 0 0 empty empty empty -2 -8 0 10 -262144
-1 -1 0 1;
#X obj 420 199 hsl 128 15 0 10000 0 0 empty empty empty -2 -8 0 10
-262144 -1 -1 0 1;
#X obj 213 497 *~ 0.01;
#X obj 213 517 outlet~;
#X connect 0 0 1 0;
#X connect 1 0 3 0;
#X connect 2 0 19 0;
#X connect 2 0 20 0;
#X connect 2 0 21 0;
#X connect 3 0 27 0;
#X connect 4 0 2 0;
#X connect 5 0 13 0;
#X connect 6 0 27 0;
#X connect 7 0 16 0;
#X connect 8 0 9 1;
#X connect 8 0 9 0;
#X connect 9 0 11 1;
#X connect 9 0 11 0;
#X connect 10 0 8 0;
#X connect 11 0 12 1;
#X connect 11 0 17 0;
#X connect 12 0 27 0;
#X connect 13 0 6 0;
#X connect 14 0 1 1;
#X connect 15 0 13 1;
#X connect 16 0 12 0;
#X connect 17 0 16 1;
#X connect 18 0 15 0;
#X connect 18 0 6 1;
#X connect 19 0 3 1;
#X connect 19 0 14 0;
#X connect 20 0 10 0;
#X connect 21 0 18 0;
#X connect 22 0 14 1;
#X connect 23 0 15 1;
#X connect 24 0 21 1;
#X connect 25 0 20 1;
#X connect 26 0 17 1;
#X connect 27 0 28 0;
#X restore 663 13 pd perc;
#N canvas 0 22 462 452 kick 0;
#X obj 89 249 osc~;
#X obj 88 310 *~;
#X obj 89 197 *~ 100;
#X obj 39 249 osc~;
#X obj 39 197 *~ 200;
#X obj 124 311 hsl 128 15 0 1 0 0 empty empty empty -2 -8 0 10 -262144
-1 -1 0 1;
#X obj 88 332 *~ 0.1;
#X obj 180 216 hsl 128 15 0 127 0 0 empty empty empty -2 -8 0 10 -262144
-1 -1 0 1;
#X obj 143 246 ar4~ 127 828;
#X obj 98 358 throw~ dac1;
#X obj 155 163 s kickTick;
#X msg 155 138 1;
#X obj 88 378 throw~ dac2;
#X obj 143 24 r tick;
#X obj 143 58 f;
#X obj 170 58 + 1;
#X obj 199 58 % 2;
#X obj 143 115 t a;
#X obj 143 85 sel 0;
#X obj 190 266 hsl 128 15 0 127 0 0 empty empty empty -2 -8 0 10 -262144
-1 -1 0 1;
#X obj 187 286 * 10;
#X connect 0 0 1 0;
#X connect 1 0 6 0;
#X connect 2 0 0 0;
#X connect 3 0 1 0;
#X connect 4 0 3 0;
#X connect 5 0 6 1;
#X connect 6 0 9 0;
#X connect 6 0 12 0;
#X connect 7 0 8 1;
#X connect 8 0 1 1;
#X connect 8 0 2 0;
#X connect 8 0 4 0;
#X connect 11 0 10 0;
#X connect 14 0 15 0;
#X connect 14 0 18 0;
#X connect 15 0 16 0;
#X connect 16 0 14 1;
#X connect 17 0 8 0;
#X connect 17 0 11 0;
#X connect 18 0 17 0;
#X connect 19 0 20 0;
#X connect 20 0 8 2;
#X restore 661 42 pd kick;
#X obj 362 65 metro 1 100 permin;
#X obj 278 250 keypiano;
#X obj 278 226 tgl 15 0 empty empty empty 17 7 0 10 -262144 -1 -1 0
1;
#X obj 63 103 voice 1;
#X obj 517 127 tgl 15 0 empty empty empty 17 7 0 10 -262144 -1 -1 1
1;
#X obj 544 430 s note;
#X obj 544 375 mtof;
#X obj 517 175 metro 1 120 permin;
#X obj 568 286 phraser;
#X obj 517 312 list-loop;
#X obj 517 342 sel 0;
#X obj 568 264 bng 15 250 50 0 empty empty empty 17 7 0 10 -262144
-1 -1;
#X obj 544 405 list prepend 1;
#X obj 674 430 s note;
#X obj 674 375 mtof;
#X obj 698 286 phraser;
#X obj 647 312 list-loop;
#X obj 647 342 sel 0;
#X obj 698 264 bng 15 250 50 0 empty empty empty 17 7 0 10 -262144
-1 -1;
#X obj 674 405 list prepend 2;
#X obj 517 199 s beat;
#X obj 517 264 r beat;
#X obj 822 429 s note;
#X obj 822 374 mtof;
#X obj 846 285 phraser;
#X obj 795 311 list-loop;
#X obj 795 341 sel 0;
#X obj 846 263 bng 15 250 50 0 empty empty empty 17 7 0 10 -262144
-1 -1;
#X obj 822 404 list prepend 3;
#X obj 962 429 s note;
#X obj 962 374 mtof;
#X obj 986 285 phraser;
#X obj 935 311 list-loop;
#X obj 935 341 sel 0;
#X obj 986 263 bng 15 250 50 0 empty empty empty 17 7 0 10 -262144
-1 -1;
#X obj 935 263 r beat;
#X obj 962 404 list prepend 4;
#X obj 63 123 voice 2;
#X obj 63 143 voice 3;
#X obj 63 163 voice 4;
#X obj 63 183 voice 5;
#X obj 63 203 voice 6;
#X obj 63 223 voice 7;
#X obj 63 243 voice 8;
#X obj 63 263 voice 9;
#X obj 637 175 metro 0.5 120 permin;
#X obj 637 204 s beat2;
#X obj 647 264 r beat2;
#X obj 777 175 metro 0.3333 120 permin;
#X obj 777 204 s beat3;
#X obj 795 263 r beat3;
#X obj 278 349 minipoly 9;
#X obj 645 553 phrase 4 16 50 4;
#X obj 594 584 list-loop;
#X obj 594 512 r beat2;
#X floatatom 615 620 5 0 0 0 - - -, f 5;
#X obj 645 514 bng 15 250 50 0 empty empty empty 17 7 0 10 -262144
-1 -1;
#N canvas 0 22 1012 552 kick 0;
#X obj 89 249 osc~;
#X obj 39 310 *~;
#X obj 89 227 *~ 100;
#X obj 39 249 osc~;
#X obj 39 227 *~ 200;
#X obj 49 358 throw~ dac1;
#X obj 39 378 throw~ dac2;
#X obj 436 9 inlet;
#X obj 436 42 sel 1 2 3;
#X obj 399 249 osc~;
#X obj 398 310 *~;
#X obj 398 197 *~ 100;
#X obj 349 249 osc~;
#X obj 408 358 throw~ dac1;
#X obj 398 378 throw~ dac2;
#X obj 349 197 *~ 300;
#X obj 709 249 osc~;
#X obj 708 310 *~;
#X obj 659 249 osc~;
#X obj 718 358 throw~ dac1;
#X obj 708 378 throw~ dac2;
#X obj 659 197 *~ 300;
#X obj 708 197 *~ 400;
#X obj 763 246 ar4~ 10 828;
#X obj 453 246 ar4~ 5 828;
#X obj 39 126 ar4~ 2 828;
#X obj 39 332 *~ 0.2;
#X obj 398 332 *~ 0.2;
#X obj 708 332 *~ 0.2;
#X connect 0 0 1 0;
#X connect 1 0 26 0;
#X connect 2 0 0 0;
#X connect 3 0 1 0;
#X connect 4 0 3 0;
#X connect 7 0 8 0;
#X connect 8 0 25 0;
#X connect 8 1 24 0;
#X connect 8 2 23 0;
#X connect 9 0 10 0;
#X connect 10 0 27 0;
#X connect 11 0 9 0;
#X connect 12 0 10 0;
#X connect 15 0 12 0;
#X connect 16 0 17 0;
#X connect 17 0 28 0;
#X connect 18 0 17 0;
#X connect 21 0 18 0;
#X connect 22 0 16 0;
#X connect 23 0 17 1;
#X connect 23 0 21 0;
#X connect 23 0 22 0;
#X connect 24 0 10 1;
#X connect 24 0 11 0;
#X connect 24 0 15 0;
#X connect 25 0 1 1;
#X connect 25 0 2 0;
#X connect 25 0 4 0;
#X connect 26 0 5 0;
#X connect 26 0 6 0;
#X connect 27 0 13 0;
#X connect 27 0 14 0;
#X connect 28 0 19 0;
#X connect 28 0 20 0;
#X restore 594 643 pd kick;
#X obj 724 228 bng 15 250 50 0 empty empty empty 17 7 0 10 -262144
-1 -1;
#X obj 804 584 list-loop;
#X floatatom 825 620 5 0 0 0 - - -, f 5;
#X obj 855 514 bng 15 250 50 0 empty empty empty 17 7 0 10 -262144
-1 -1;
#N canvas 0 22 1012 552 kick 0;
#X obj 89 249 osc~;
#X obj 39 310 *~;
#X obj 89 227 *~ 100;
#X obj 39 249 osc~;
#X obj 39 227 *~ 200;
#X obj 49 358 throw~ dac1;
#X obj 39 378 throw~ dac2;
#X obj 436 9 inlet;
#X obj 436 42 sel 1 2 3;
#X obj 399 249 osc~;
#X obj 398 310 *~;
#X obj 398 197 *~ 100;
#X obj 349 249 osc~;
#X obj 408 358 throw~ dac1;
#X obj 398 378 throw~ dac2;
#X obj 349 197 *~ 300;
#X obj 708 310 *~;
#X obj 659 249 osc~;
#X obj 718 358 throw~ dac1;
#X obj 708 378 throw~ dac2;
#X obj 659 197 *~ 300;
#X obj 709 197 *~ 400;
#X obj 763 246 ar4~ 10 828;
#X obj 453 246 ar4~ 5 828;
#X obj 39 126 ar4~ 2 828;
#X obj 39 332 *~ 0.2;
#X obj 398 332 *~ 0.2;
#X obj 708 332 *~ 0.2;
#X obj 709 249 phasor~;
#X obj 709 275 -~ 0.5;
#X connect 0 0 1 0;
#X connect 1 0 25 0;
#X connect 2 0 0 0;
#X connect 3 0 1 0;
#X connect 4 0 3 0;
#X connect 7 0 8 0;
#X connect 8 0 24 0;
#X connect 8 1 23 0;
#X connect 8 2 22 0;
#X connect 9 0 10 0;
#X connect 10 0 26 0;
#X connect 11 0 9 0;
#X connect 12 0 10 0;
#X connect 15 0 12 0;
#X connect 16 0 27 0;
#X connect 17 0 16 0;
#X connect 20 0 17 0;
#X connect 21 0 28 0;
#X connect 22 0 16 1;
#X connect 22 0 20 0;
#X connect 22 0 21 0;
#X connect 23 0 10 1;
#X connect 23 0 11 0;
#X connect 23 0 15 0;
#X connect 24 0 1 1;
#X connect 24 0 2 0;
#X connect 24 0 4 0;
#X connect 25 0 5 0;
#X connect 25 0 6 0;
#X connect 26 0 13 0;
#X connect 26 0 14 0;
#X connect 27 0 18 0;
#X connect 27 0 19 0;
#X connect 28 0 29 0;
#X connect 29 0 16 0;
#X restore 804 643 pd kick;
#X obj 804 512 r beat1;
#X obj 855 553 phrase 4 16 80 4;
#X obj 445 489 r \$0scale;
#X msg 966 56 0 2 3 5 7 9 10 12;
#X obj 966 34 loadbang;
#X obj 966 119 s \$0scale;
#X obj 1038 114 list length;
#X obj 1038 139 s \$0scale-len;
#X obj 207 432 phrase 6 10 70 40;
#X obj 306 579 degree-to-note;
#X obj 387 548 r \$0scale;
#X obj 306 601 + 36;
#X text 339 603 root note;
#N canvas 0 22 451 387 NOTES 0;
#X text 74 56 Tempo (1/2 \, 1/3 \, 1/4 \, 1/8 \, 1/16) Length 4-20
beats Envelope attack and decay Filter strength and resonance Rests
Scale Delay Global params Reverb Filter Portamento;
#X restore 79 20 pd NOTES;
#X connect 0 0 11 0;
#X connect 1 0 62 0;
#X connect 4 0 0 0;
#X connect 7 0 6 0;
#X connect 11 0 3 0;
#X connect 12 0 1 0;
#X connect 13 0 12 0;
#X connect 15 0 18 0;
#X connect 15 0 56 0;
#X connect 15 0 59 0;
#X connect 17 0 23 0;
#X connect 18 0 31 0;
#X connect 19 0 20 1;
#X connect 20 0 21 0;
#X connect 21 1 17 0;
#X connect 22 0 19 0;
#X connect 23 0 16 0;
#X connect 25 0 30 0;
#X connect 26 0 27 1;
#X connect 27 0 28 0;
#X connect 28 1 25 0;
#X connect 29 0 26 0;
#X connect 30 0 24 0;
#X connect 32 0 20 0;
#X connect 34 0 39 0;
#X connect 35 0 36 1;
#X connect 36 0 37 0;
#X connect 37 1 34 0;
#X connect 38 0 35 0;
#X connect 39 0 33 0;
#X connect 41 0 47 0;
#X connect 42 0 43 1;
#X connect 43 0 44 0;
#X connect 44 1 41 0;
#X connect 45 0 42 0;
#X connect 46 0 43 0;
#X connect 47 0 40 0;
#X connect 56 0 57 0;
#X connect 58 0 27 0;
#X connect 59 0 60 0;
#X connect 61 0 36 0;
#X connect 62 0 2 0;
#X connect 63 0 64 1;
#X connect 64 0 66 0;
#X connect 64 0 68 0;
#X connect 65 0 64 0;
#X connect 67 0 63 0;
#X connect 69 0 26 0;
#X connect 69 0 19 0;
#X connect 69 0 35 0;
#X connect 69 0 42 0;
#X connect 70 0 71 0;
#X connect 70 0 73 0;
#X connect 72 0 75 0;
#X connect 74 0 70 0;
#X connect 75 0 70 1;
#X connect 77 0 79 0;
#X connect 77 0 80 0;
#X connect 78 0 77 0;
#X connect 80 0 81 0;
#X connect 83 0 85 0;
#X connect 84 0 83 1;
