#N canvas 9 388 596 451 10;
#X obj 61 341 *~;
#X obj 61 392 to-multidac~ \$1;
#X obj 152 179 t b;
#X obj 28 139 trisaw~;
#X obj 28 61 t a b;
#X obj 44 240 +~ 1200;
#X obj 44 218 *~ 900;
#X obj 346 222 degree-to-note;
#X obj 346 244 + 36;
#X obj 347 184 sel 0;
#X obj 346 315 mtof;
#X obj 497 103 r density;
#X obj 427 201 r scale;
#X obj 380 244 r root;
#X obj 347 46 r beat;
#X obj 347 117 sel;
#X obj 398 127 phrase 6 20 70 24;
#X obj 432 332 * 12;
#X obj 346 280 +;
#X obj 28 33 r \$0freq;
#X obj 346 356 s \$0freq;
#X obj 362 86 random 8;
#X obj 152 216 ar4~ 5 500;
#X obj 28 117 line~;
#X obj 28 278 vcf~ 3;
#X obj 432 305 random 4;
#X obj 44 192 osc~ 0.1;
#X obj 347 156 list-loop;
#X obj 209 179 r decay-time;
#X obj 226 37 r \$1xyz;
#X obj 61 367 *~ 0.5;
#X obj 126 60 snapshot~;
#X obj 126 100 list prepend \$1;
#X obj 126 121 s pitchesByVoice;
#X obj 126 80 / 1000;
#X msg 28 91 \$1 100;
#X obj 61 303 hip~ 10;
#X obj 126 36 r snapshot;
#X obj 152 284 s amplitudesByVoice;
#X obj 152 242 snapshot~;
#X obj 152 263 list prepend \$1;
#X obj 213 242 r snapshot;
#X obj 187 60 r snapshot;
#X obj 487 399 r new-phrase;
#X obj 487 429 s \$1new-phrase;
#X obj 487 29 r \$1new-phrase;
#X connect 0 0 30 0;
#X connect 2 0 22 0;
#X connect 3 0 24 0;
#X connect 4 0 35 0;
#X connect 4 1 2 0;
#X connect 5 0 24 1;
#X connect 6 0 5 0;
#X connect 7 0 8 0;
#X connect 8 0 18 0;
#X connect 9 1 7 0;
#X connect 10 0 20 0;
#X connect 11 0 16 1;
#X connect 12 0 7 1;
#X connect 13 0 8 1;
#X connect 14 0 15 0;
#X connect 15 0 27 0;
#X connect 16 0 27 1;
#X connect 17 0 18 1;
#X connect 18 0 10 0;
#X connect 19 0 4 0;
#X connect 21 0 15 1;
#X connect 22 0 0 1;
#X connect 22 0 39 0;
#X connect 23 0 3 0;
#X connect 23 0 31 0;
#X connect 24 1 36 0;
#X connect 25 0 17 0;
#X connect 26 0 6 0;
#X connect 27 0 9 0;
#X connect 28 0 22 2;
#X connect 30 0 1 0;
#X connect 31 0 34 0;
#X connect 32 0 33 0;
#X connect 34 0 32 0;
#X connect 35 0 23 0;
#X connect 36 0 0 0;
#X connect 37 0 31 0;
#X connect 39 0 40 0;
#X connect 40 0 38 0;
#X connect 41 0 39 0;
#X connect 42 0 31 0;
#X connect 43 0 44 0;
#X connect 45 0 16 0;
#X connect 45 0 21 0;
#X connect 45 0 25 0;
