#N canvas 31 397 596 451 10;
#X obj 61 341 *~;
#X obj 61 392 to-multidac~ \$1;
#X obj 152 179 t b;
#X obj 28 139 trisaw~;
#X obj 28 61 t a b;
#X obj 44 240 +~ 1200;
#X obj 44 218 *~ 900;
#X obj 346 222 degree-to-note;
#X obj 346 244 + 36;
#X obj 347 184 sel 0;
#X obj 346 315 mtof;
#X obj 487 29 r new-phrase;
#X obj 497 103 r density;
#X obj 427 201 r scale;
#X obj 380 244 r root;
#X obj 347 46 r beat;
#X obj 347 117 sel;
#X obj 398 127 phrase 6 20 70 24;
#X obj 432 332 * 12;
#X obj 346 280 +;
#X obj 28 33 r \$0freq;
#X obj 346 356 s \$0freq;
#X obj 362 86 random 8;
#X obj 152 216 ar4~ 5 500;
#X obj 28 117 line~;
#X msg 28 91 \$1 10;
#X obj 28 278 vcf~ 3;
#X obj 432 305 random 4;
#X obj 44 192 osc~ 0.1;
#X obj 347 156 list-loop;
#X obj 209 179 r decay-time;
#X connect 0 0 1 0;
#X connect 2 0 23 0;
#X connect 3 0 26 0;
#X connect 4 0 25 0;
#X connect 4 1 2 0;
#X connect 5 0 26 1;
#X connect 6 0 5 0;
#X connect 7 0 8 0;
#X connect 8 0 19 0;
#X connect 9 1 7 0;
#X connect 10 0 21 0;
#X connect 11 0 17 0;
#X connect 11 0 22 0;
#X connect 11 0 27 0;
#X connect 12 0 17 1;
#X connect 13 0 7 1;
#X connect 14 0 8 1;
#X connect 15 0 16 0;
#X connect 16 0 29 0;
#X connect 17 0 29 1;
#X connect 18 0 19 1;
#X connect 19 0 10 0;
#X connect 20 0 4 0;
#X connect 22 0 16 1;
#X connect 23 0 0 1;
#X connect 24 0 3 0;
#X connect 25 0 24 0;
#X connect 26 1 0 0;
#X connect 27 0 18 0;
#X connect 28 0 6 0;
#X connect 29 0 9 0;
#X connect 30 0 23 2;
