#N canvas 19 81 951 716 10;
#X obj 49 266 -~ 0.5;
#X obj 129 210 *~ 0.5;
#X obj 129 266 -~ 0.5;
#X obj 87 319 *~ 0.2;
#X obj 186 210 osc~ 3;
#X obj 103 402 osc~ 3;
#X obj 685 190 route \$1;
#X obj 685 158 r note;
#X obj 120 551 *~;
#X obj 685 297 s \$0note;
#X obj 129 6 r \$0note;
#X obj 241 467 r \$0note;
#X obj 103 374 rescale~ -1 1 1 30;
#X obj 186 178 rescale~ -1 1 1 10;
#X obj 87 488 vcf~ 2;
#X obj 129 240 phasor~;
#X obj 49 240 phasor~;
#X obj 319 236 -~ 0.5;
#X obj 319 215 phasor~;
#X obj 319 265 *~;
#X obj 416 272 rescale~ -1 1 0 1;
#X obj 319 190 +~;
#X obj 378 190 rescale~ -1 1 1 7;
#X obj 319 168 *~ 2;
#X obj 103 428 *~ 400;
#X obj 103 450 +~ 800;
#X obj 120 672 to-multidac~ \$1;
#X obj 560 125 r \$1xyz;
#X obj 560 149 unpack f f f;
#X obj 560 182 s \$0x;
#X obj 594 202 s \$0y;
#X obj 629 222 s \$0z;
#X obj 186 153 r \$0x;
#X obj 378 167 r \$0y;
#X obj 416 249 r \$0z;
#X obj 103 349 r \$0z;
#X obj 483 367 r \$1trigger;
#X obj 129 39 f;
#X obj 483 469 s \$0note;
#X obj 120 601 *~;
#X obj 238 590 r \$0volume;
#X obj 727 254 s \$0volume;
#X obj 685 220 t a b;
#X msg 727 219 1;
#X text 685 136 sequencer triggers are always full volume;
#X obj 483 400 t b a;
#X obj 510 430 s \$0volume;
#X text 538 389 these come from collisions and scale volume by strength
;
#X obj 129 68 sig~;
#X text 155 415 filter;
#X text 158 41 stores the note so we can retrigger it with collisions
;
#X msg 238 611 \$1 50;
#X obj 238 633 line~;
#X obj 241 499 t b;
#X obj 241 536 ar4~ 5 2000;
#X connect 0 0 3 0;
#X connect 1 0 15 0;
#X connect 2 0 3 0;
#X connect 3 0 14 0;
#X connect 4 0 15 0;
#X connect 5 0 24 0;
#X connect 6 0 42 0;
#X connect 7 0 6 0;
#X connect 8 0 39 0;
#X connect 10 0 37 0;
#X connect 11 0 53 0;
#X connect 12 0 5 0;
#X connect 13 0 4 0;
#X connect 14 1 8 0;
#X connect 15 0 2 0;
#X connect 16 0 0 0;
#X connect 17 0 19 0;
#X connect 18 0 17 0;
#X connect 19 0 3 0;
#X connect 20 0 19 1;
#X connect 21 0 18 0;
#X connect 22 0 21 1;
#X connect 23 0 21 0;
#X connect 24 0 25 0;
#X connect 25 0 14 1;
#X connect 27 0 28 0;
#X connect 28 0 29 0;
#X connect 28 1 30 0;
#X connect 28 2 31 0;
#X connect 32 0 13 0;
#X connect 33 0 22 0;
#X connect 34 0 20 0;
#X connect 35 0 12 0;
#X connect 36 0 45 0;
#X connect 37 0 48 0;
#X connect 39 0 26 0;
#X connect 40 0 51 0;
#X connect 42 0 9 0;
#X connect 42 1 43 0;
#X connect 43 0 41 0;
#X connect 45 0 38 0;
#X connect 45 1 46 0;
#X connect 48 0 1 0;
#X connect 48 0 16 0;
#X connect 48 0 23 0;
#X connect 51 0 52 0;
#X connect 52 0 39 1;
#X connect 53 0 54 0;
#X connect 54 0 8 1;
