#N canvas 75 282 596 451 10;
#X obj 128 71 route \$1;
#X obj 128 39 r note;
#X obj 161 351 *~;
#X obj 161 402 to-multidac~ \$1;
#X obj 252 189 t b;
#X obj 128 149 trisaw~;
#X obj 144 202 osc~ 7;
#X obj 128 288 vcf~ 2;
#X obj 128 111 t a b;
#X obj 144 250 +~ 1200;
#X obj 144 228 *~ 900;
#X obj 252 226 ar4~ 5 1000;
#X connect 0 0 8 0;
#X connect 1 0 0 0;
#X connect 2 0 3 0;
#X connect 4 0 11 0;
#X connect 5 0 7 0;
#X connect 6 0 10 0;
#X connect 7 1 2 0;
#X connect 8 0 5 0;
#X connect 8 1 4 0;
#X connect 9 0 7 1;
#X connect 10 0 9 0;
#X connect 11 0 2 1;
